<?xml version="1.0" encoding="UTF-8"?>
<svg xmlns="http://www.w3.org/2000/svg" xmlns:xlink="http://www.w3.org/1999/xlink" width="85px" height="83px" viewBox="0 0 85 83" version="1.1">
<g id="surface1">
<path style=" stroke:none;fill-rule:nonzero;fill:rgb(0%,0%,0%);fill-opacity:1;" d="M 47.625 72.726562 C 47.230469 72.804688 47.019531 73.097656 46.699219 73.230469 C 45.429688 73.753906 44.328125 73.316406 43.210938 72.765625 C 42.675781 72.5 42.183594 72.117188 41.875 71.683594 C 41.289062 70.863281 40.46875 70.683594 39.613281 70.519531 C 39.226562 70.445312 38.886719 70.367188 38.582031 70.078125 C 38.320312 69.832031 37.964844 69.90625 37.503906 70.007812 C 38.257812 70.867188 38.550781 71.839844 38.847656 72.832031 C 39.074219 73.601562 39.042969 74.238281 38.511719 74.835938 C 38.394531 74.96875 38.324219 75.171875 38.085938 75.085938 C 37.898438 75.019531 37.785156 74.867188 37.75 74.6875 C 37.679688 74.355469 37.609375 74.019531 37.59375 73.679688 C 37.515625 71.765625 36.421875 70.597656 34.914062 69.558594 C 33.957031 68.898438 32.953125 68.296875 32.027344 67.578125 C 31.34375 67.046875 30.527344 66.714844 29.726562 66.417969 C 29.34375 66.277344 28.992188 66.148438 28.976562 65.78125 C 28.964844 65.457031 29.21875 65.117188 29.546875 64.957031 C 29.929688 64.769531 30.238281 64.507812 30.585938 64.121094 C 30.035156 64.097656 29.578125 64.074219 29.121094 64.050781 C 27.917969 63.992188 26.890625 63.433594 25.859375 62.890625 C 25.820312 62.867188 25.769531 62.855469 25.746094 62.820312 C 25.4375 62.398438 24.863281 62.054688 25.167969 61.421875 C 25.476562 60.789062 26.039062 60.820312 26.632812 61 C 27.015625 61.113281 27.386719 61.292969 27.816406 61.269531 C 28.207031 61.25 28.242188 61.523438 28.140625 61.835938 C 27.925781 62.472656 28.230469 62.578125 28.804688 62.628906 C 29.898438 62.730469 30.878906 62.449219 31.863281 62.046875 C 32.246094 61.886719 32.742188 61.65625 33.035156 62.125 C 33.316406 62.570312 33.398438 63.082031 32.953125 63.5625 C 32.402344 64.160156 31.910156 64.816406 31.371094 65.46875 C 32.457031 66.183594 33.480469 67.019531 34.644531 67.550781 C 35.164062 67.785156 35.84375 67.878906 36.457031 68.035156 C 37.335938 68.257812 38.117188 68.878906 39.113281 68.707031 C 39.414062 68.65625 39.648438 68.992188 39.859375 69.207031 C 40.089844 69.128906 40.027344 68.96875 39.988281 68.855469 C 39.539062 67.582031 39.265625 66.261719 38.933594 64.957031 C 38.847656 64.613281 38.894531 64.28125 38.902344 63.949219 C 38.90625 63.652344 39.132812 63.457031 39.449219 63.449219 C 39.765625 63.441406 40.058594 63.507812 40.125 63.878906 C 40.363281 65.234375 40.746094 66.5625 41.21875 67.84375 C 41.542969 68.726562 42.019531 69.585938 42.707031 70.460938 C 42.75 70.117188 42.8125 69.90625 42.796875 69.703125 C 42.75 69.054688 43.207031 69.015625 43.644531 69 C 44.183594 68.980469 44.15625 69.414062 44.167969 69.773438 C 44.175781 70.15625 44.171875 70.546875 44.125 70.925781 C 44.09375 71.175781 44.097656 71.375 44.394531 71.539062 C 44.511719 71.226562 44.820312 71.035156 44.589844 70.597656 C 44.410156 70.257812 44.816406 69.648438 45.160156 69.613281 C 45.710938 69.558594 45.949219 69.835938 45.941406 70.378906 C 45.9375 70.695312 45.933594 71.023438 46.007812 71.324219 C 46.066406 71.550781 46.222656 71.851562 46.535156 71.699219 C 46.808594 71.566406 46.671875 71.308594 46.5625 71.109375 C 46.464844 70.929688 46.296875 70.773438 46.257812 70.585938 C 46.171875 70.171875 46.023438 69.710938 46.476562 69.402344 C 46.929688 69.09375 47.226562 69.445312 47.542969 69.722656 C 47.589844 69.664062 47.667969 69.605469 47.660156 69.5625 C 47.300781 67.886719 47.835938 66.234375 47.78125 64.566406 C 47.777344 64.5 47.785156 64.425781 47.8125 64.363281 C 47.976562 63.96875 48.148438 63.402344 48.632812 63.542969 C 48.976562 63.644531 49.136719 64.117188 49.167969 64.648438 C 49.210938 65.421875 48.667969 66.21875 49.125 66.921875 C 49.558594 67.59375 49.816406 68.347656 50.261719 69.007812 C 50.421875 69.246094 50.566406 69.433594 50.875 69.558594 C 50.980469 69.269531 50.941406 68.9375 51.203125 68.707031 C 51.394531 68.539062 51.542969 68.324219 51.828125 68.386719 C 52.105469 68.449219 52.230469 68.6875 52.289062 68.929688 C 52.359375 69.210938 52.449219 69.484375 52.398438 69.796875 C 52.214844 70.945312 52.226562 70.949219 53.410156 71.214844 C 53.511719 70.75 53.5625 70.296875 53.363281 69.839844 C 53.125 69.300781 53.414062 68.828125 53.585938 68.351562 C 53.65625 68.164062 53.886719 68.105469 54.054688 68.214844 C 54.285156 68.371094 54.578125 68.480469 54.582031 68.859375 C 54.585938 69.308594 54.644531 69.757812 54.675781 70.207031 C 54.691406 70.464844 54.761719 70.695312 54.96875 70.886719 C 55.429688 70.789062 55.617188 70.339844 55.972656 70.179688 C 55.988281 69.796875 55.71875 69.605469 55.585938 69.351562 C 55.257812 68.714844 55.441406 68.203125 56.128906 68.183594 C 56.699219 68.167969 56.78125 67.90625 56.757812 67.46875 C 56.699219 66.339844 56.820312 65.203125 56.445312 64.09375 C 56.304688 63.671875 56.308594 63.15625 56.53125 62.703125 C 56.671875 62.421875 56.921875 62.335938 57.207031 62.332031 C 57.488281 62.324219 57.460938 62.582031 57.566406 62.742188 C 57.910156 63.273438 57.777344 63.886719 57.894531 64.457031 C 58.035156 65.152344 58.238281 65.882812 58.144531 66.5625 C 58.046875 67.273438 58.34375 68.003906 57.980469 68.6875 C 57.90625 68.828125 57.910156 69.042969 58.019531 69.230469 C 58.613281 69.480469 59.25 69.59375 59.894531 69.570312 C 60.414062 69.550781 60.867188 69.773438 61.355469 69.863281 C 61.660156 69.921875 61.648438 70.199219 61.65625 70.570312 C 62.089844 69.960938 62.449219 69.527344 63.066406 69.394531 C 63.859375 69.21875 63.933594 68.542969 64.007812 67.871094 C 64.558594 67.777344 65.074219 67.617188 65.585938 67.488281 C 66.546875 67.25 66.9375 66.558594 67.234375 65.769531 C 67.382812 65.378906 67.671875 65.1875 67.941406 64.917969 C 68.671875 64.203125 69.800781 63.777344 69.867188 62.535156 C 69.898438 62 69.878906 61.476562 69.617188 60.957031 C 69.34375 60.417969 69.589844 59.894531 69.964844 59.464844 C 70.367188 59.003906 70.726562 58.519531 71.023438 57.976562 C 71.324219 57.429688 71.234375 56.96875 70.988281 56.449219 C 70.582031 55.605469 70.125 54.773438 70.007812 53.8125 C 69.933594 53.199219 70.199219 52.636719 70.238281 52.035156 C 70.316406 50.804688 69.90625 49.808594 69.308594 48.828125 C 69.117188 48.515625 68.621094 48.3125 68.820312 47.863281 C 69.0625 47.316406 69.28125 46.714844 69.890625 46.425781 C 70.011719 46.371094 70.148438 46.332031 70.253906 46.253906 C 70.835938 45.816406 70.910156 45.5 70.40625 44.617188 C 69.761719 43.484375 69.292969 42.265625 68.730469 41.09375 C 68.140625 39.875 67.425781 38.722656 66.894531 37.476562 C 66.722656 37.074219 66.710938 36.570312 66.945312 36.304688 C 67.492188 35.683594 66.914062 35.261719 66.785156 34.785156 C 66.660156 34.316406 66.203125 34.347656 65.777344 34.304688 C 63.730469 34.082031 62.058594 32.710938 62.839844 30.027344 C 62.195312 29.773438 61.527344 29.542969 60.882812 29.257812 C 60.09375 28.90625 59.507812 28.253906 58.832031 27.738281 C 58.707031 27.636719 58.710938 27.457031 58.726562 27.289062 C 58.738281 27.160156 58.75 26.933594 58.6875 26.90625 C 57.734375 26.441406 58.214844 25.625 58.253906 24.972656 C 58.308594 24.070312 57.90625 23.296875 57.726562 22.464844 C 57.449219 21.152344 56.480469 20.300781 55.664062 19.34375 C 55.183594 18.777344 54.476562 18.527344 53.878906 18.132812 C 53.410156 17.828125 53.039062 18.273438 52.8125 18.605469 C 52.042969 19.71875 50.785156 20.265625 49.898438 21.234375 C 49.800781 21.339844 49.621094 21.375 49.472656 21.429688 C 49.066406 21.570312 48.585938 21.804688 48.335938 21.28125 C 48.074219 20.734375 48.523438 20.402344 48.90625 20.117188 C 50.15625 19.183594 51.410156 18.257812 52.421875 17.050781 C 52.96875 16.40625 53.914062 16.332031 54.882812 16.96875 C 56.578125 18.074219 57.992188 19.480469 58.898438 21.308594 C 59.617188 22.773438 59.929688 24.355469 59.679688 25.984375 C 59.601562 26.496094 59.832031 26.738281 60.117188 27.015625 C 61.035156 27.917969 62.195312 28.332031 63.402344 28.644531 C 64.335938 28.886719 64.46875 29.136719 64.164062 30.027344 C 63.945312 30.664062 64.082031 31.335938 64.117188 31.984375 C 64.132812 32.273438 64.425781 32.472656 64.71875 32.585938 C 65.304688 32.808594 65.871094 33.058594 66.511719 33.140625 C 67.742188 33.296875 68.589844 34.453125 68.378906 35.671875 C 68.1875 36.792969 68.417969 37.769531 69.09375 38.695312 C 69.761719 39.609375 70.125 40.699219 70.570312 41.734375 C 70.925781 42.566406 71.359375 43.355469 71.757812 44.164062 C 72.132812 44.9375 72.359375 45.722656 71.898438 46.550781 C 71.636719 47.019531 71.210938 47.332031 70.808594 47.652344 C 70.445312 47.9375 70.425781 48.175781 70.683594 48.566406 C 71.683594 50.058594 71.933594 51.679688 71.359375 53.402344 C 71.191406 53.910156 71.339844 54.316406 71.628906 54.734375 C 72.066406 55.367188 72.457031 56.050781 72.621094 56.792969 C 72.863281 57.90625 72.277344 58.808594 71.621094 59.621094 C 71.171875 60.179688 70.964844 60.644531 71.199219 61.4375 C 71.582031 62.738281 71.148438 63.9375 70.101562 64.859375 C 69.640625 65.261719 69.183594 65.667969 68.714844 66.0625 C 68.570312 66.183594 68.464844 66.304688 68.425781 66.5 C 68.191406 67.644531 67.316406 68.152344 66.351562 68.542969 C 66.113281 68.636719 65.945312 68.722656 65.777344 68.945312 C 65.003906 69.972656 63.917969 70.574219 62.730469 70.992188 C 62.558594 71.050781 62.371094 70.992188 62.199219 70.917969 C 62.058594 70.855469 61.871094 70.734375 61.761719 70.78125 C 61.011719 71.105469 60.222656 70.667969 59.449219 70.9375 C 59.050781 71.082031 58.605469 70.738281 58.152344 70.730469 C 57.65625 70.722656 57.28125 70.765625 56.925781 71.21875 C 56.097656 72.277344 54.914062 72.863281 53.609375 72.75 C 52.101562 72.621094 50.71875 72.019531 49.808594 70.675781 C 49.582031 70.335938 49.582031 70.335938 49.152344 70.050781 C 48.671875 70.945312 48.316406 71.90625 47.625 72.726562 Z M 47.625 72.726562 "/>
<path style=" stroke:none;fill-rule:nonzero;fill:rgb(0%,0%,0%);fill-opacity:1;" d="M 45.90625 35.492188 C 45.804688 36.359375 46.203125 37.074219 46.507812 37.855469 C 46.863281 38.761719 46.964844 39.789062 46.832031 40.769531 C 46.75 41.394531 46.246094 41.917969 45.6875 42.097656 C 45.207031 42.246094 44.558594 42.046875 44.214844 41.621094 C 43.648438 40.917969 43.175781 40.144531 42.980469 39.214844 C 42.839844 38.5625 42.722656 37.84375 41.871094 37.601562 C 41.296875 37.4375 41.339844 36.695312 40.898438 36.335938 C 40.816406 36.308594 40.746094 36.371094 40.699219 36.445312 C 39.214844 38.714844 36.335938 38.886719 34.460938 37.867188 C 33.734375 37.472656 33.070312 36.886719 32.839844 35.96875 C 32.691406 35.359375 32.429688 34.785156 32.519531 34.128906 C 32.671875 33.039062 33.410156 32.332031 34.140625 31.648438 C 34.421875 31.386719 34.757812 31.160156 35.117188 30.960938 C 36.554688 30.160156 37.945312 30.292969 39.449219 30.804688 C 40.4375 31.140625 41.011719 31.769531 41.476562 32.605469 C 41.644531 32.898438 41.910156 32.875 42.128906 32.796875 C 43.042969 32.464844 44.039062 32.515625 44.9375 32.136719 C 45.402344 31.941406 45.722656 31.679688 45.886719 31.164062 C 46.015625 30.753906 46.214844 30.3125 46.75 30.210938 C 46.847656 30.195312 46.957031 30.101562 47.015625 30.015625 C 47.695312 28.964844 48.574219 28.515625 49.890625 28.617188 C 51.242188 28.726562 52.414062 29.191406 53.398438 30.003906 C 54.597656 30.996094 54.804688 32.304688 54.210938 33.800781 C 53.886719 34.605469 53.21875 35.0625 52.636719 35.453125 C 51.414062 36.273438 49.953125 36.59375 48.460938 36.566406 C 47.917969 36.558594 47.378906 36.394531 46.945312 36.046875 C 46.652344 35.8125 46.316406 35.699219 45.933594 35.46875 C 45.761719 34.882812 45.171875 34.601562 45.207031 33.984375 C 45.214844 33.847656 44.960938 33.683594 44.660156 33.785156 C 44.027344 34 43.371094 34.171875 42.710938 34.285156 C 41.589844 34.480469 41.265625 34.832031 41.269531 36.046875 C 41.765625 35.609375 42.242188 35.46875 42.601562 36.195312 C 43.191406 35.5625 43.714844 34.929688 44.542969 35.652344 C 44.992188 34.890625 45.039062 34.890625 45.90625 35.492188 M 34.894531 35.898438 C 35.371094 36.175781 35.757812 36.007812 36.109375 35.65625 C 36.769531 34.996094 37.246094 34.195312 37.753906 33.421875 C 38.089844 32.914062 37.566406 31.757812 36.996094 31.71875 C 36.195312 31.660156 35.488281 31.867188 34.988281 32.578125 C 34.550781 33.195312 34.265625 33.863281 34.109375 34.605469 C 34.066406 34.816406 33.871094 35.023438 34.054688 35.230469 C 34.234375 35.429688 34.46875 35.328125 34.679688 35.242188 C 34.777344 35.203125 34.882812 35.125 34.992188 35.269531 C 34.941406 35.445312 34.769531 35.605469 34.894531 35.898438 M 47.300781 33.847656 C 47.585938 34.210938 47.894531 34.039062 48.109375 33.804688 C 48.734375 33.121094 49.363281 32.433594 49.851562 31.636719 C 50.09375 31.238281 50.191406 30.800781 50.019531 30.332031 C 49.957031 30.160156 49.910156 29.957031 49.6875 29.953125 C 49.199219 29.941406 48.71875 29.882812 48.222656 30.082031 C 46.957031 30.585938 46.742188 32.308594 47.300781 33.847656 Z M 47.300781 33.847656 "/>
<path style=" stroke:none;fill-rule:nonzero;fill:rgb(0%,0%,0%);fill-opacity:1;" d="M 26.183594 28.527344 C 26.042969 27.585938 26.242188 26.703125 26.382812 25.851562 C 26.652344 24.179688 27.3125 22.628906 28.808594 21.621094 C 29.414062 21.210938 29.976562 21.515625 30.476562 21.847656 C 31.4375 22.492188 32.53125 22.925781 33.390625 23.75 C 33.652344 24.003906 34.195312 23.894531 34.414062 24.40625 C 34.800781 23.976562 35.164062 23.695312 35.667969 24.046875 C 35.765625 24.113281 35.898438 24.050781 35.964844 23.949219 C 36.4375 23.210938 37.21875 22.910156 37.976562 22.675781 C 39.820312 22.113281 41.628906 21.457031 43.574219 21.175781 C 44.636719 21.023438 45.761719 21.117188 46.792969 20.691406 C 47.089844 20.570312 47.199219 20.910156 47.371094 21.070312 C 47.523438 21.207031 47.570312 21.363281 47.441406 21.550781 C 47.015625 22.1875 46.375 22.652344 45.511719 22.386719 C 45.40625 22.355469 45.277344 22.308594 45.183594 22.339844 C 43.832031 22.800781 42.351562 22.601562 41.023438 23.175781 C 40.074219 23.585938 39.027344 23.679688 38.078125 24.109375 C 37.832031 24.21875 37.578125 24.269531 37.398438 24.496094 C 37.238281 24.695312 36.984375 24.871094 36.757812 24.839844 C 36.113281 24.753906 35.75 25.023438 35.398438 25.542969 C 35.082031 26.011719 34.609375 26.097656 34.042969 25.730469 C 32.757812 24.902344 31.417969 24.15625 30.183594 23.246094 C 29.957031 23.078125 29.652344 23.011719 29.351562 22.886719 C 29.136719 23.199219 28.929688 23.480469 28.933594 23.867188 C 28.9375 24.601562 28.316406 25.050781 28.109375 25.675781 C 27.871094 26.398438 27.859375 27.160156 28.238281 27.863281 C 28.636719 27.816406 28.519531 27.429688 28.765625 27.28125 C 29.078125 27.382812 29.171875 27.683594 29.230469 27.953125 C 29.488281 29.121094 29.726562 30.296875 29.953125 31.472656 C 30.042969 31.933594 29.835938 32.292969 29.390625 32.433594 C 29.035156 32.542969 28.730469 32.722656 28.433594 32.90625 C 28.703125 34.503906 27.253906 34.503906 26.378906 35.121094 C 26.941406 35.894531 26.765625 36.578125 26.070312 37.191406 C 25.820312 37.410156 25.925781 37.664062 26.179688 37.804688 C 27.386719 38.480469 27.164062 39.304688 26.246094 40.292969 C 25.894531 40.671875 25.5 41.082031 24.960938 41.273438 C 24.355469 41.488281 24.417969 41.96875 24.675781 42.371094 C 24.859375 42.660156 24.882812 43.011719 25.183594 43.226562 C 24.894531 43.601562 24.570312 43.824219 24.203125 43.65625 C 23.726562 43.441406 23.335938 43.035156 23.214844 42.519531 C 22.898438 41.132812 23.21875 40.542969 24.507812 39.84375 C 24.855469 39.660156 25.164062 39.402344 25.535156 39.148438 C 25.015625 38.71875 24.683594 38.277344 24.539062 37.609375 C 24.40625 36.992188 24.738281 36.664062 24.964844 36.265625 C 25.164062 35.921875 25.167969 35.667969 24.976562 35.34375 C 24.835938 35.113281 24.714844 34.855469 24.671875 34.59375 C 24.601562 34.171875 24.746094 33.8125 25.207031 33.710938 C 25.664062 33.605469 26.164062 33.621094 26.585938 33.445312 C 26.984375 33.285156 27.304688 32.945312 27.703125 32.65625 C 26.679688 31.503906 26.394531 30.058594 26.183594 28.527344 Z M 26.183594 28.527344 "/>
<path style=" stroke:none;fill-rule:nonzero;fill:rgb(0%,0%,0%);fill-opacity:1;" d="M 18.417969 58.351562 C 18.859375 57.992188 19.371094 57.898438 19.828125 57.734375 C 20.835938 57.367188 21.191406 56.539062 21.628906 55.679688 C 22.03125 54.898438 21.878906 54.015625 22.269531 53.242188 C 22.402344 52.988281 22.527344 52.742188 22.734375 52.515625 C 21.890625 51.359375 21.960938 50.101562 22.132812 48.761719 C 22.21875 48.089844 22.382812 47.390625 22.625 46.851562 C 22.992188 46.015625 23.210938 45.058594 23.871094 44.359375 C 24.101562 44.113281 24.363281 43.8125 24.738281 44.058594 C 25.082031 44.28125 25.066406 44.679688 24.914062 44.980469 C 24.363281 46.074219 24 47.234375 23.660156 48.40625 C 23.347656 49.503906 23.304688 50.585938 23.871094 51.621094 C 24.222656 52.265625 24.261719 52.84375 23.832031 53.515625 C 23.371094 54.230469 23.113281 55.058594 22.933594 55.902344 C 22.574219 57.578125 21.472656 58.582031 19.933594 59.179688 C 19.492188 59.351562 19.054688 59.492188 18.957031 60.089844 C 18.921875 60.308594 18.640625 60.574219 18.410156 60.65625 C 16.609375 61.328125 15.625 62.796875 14.726562 64.359375 C 13.808594 65.949219 13.519531 67.757812 14.003906 69.410156 C 14.441406 70.898438 15.457031 72.25 17.074219 72.925781 C 17.859375 73.25 18.726562 73.421875 19.382812 74.027344 C 19.480469 74.121094 19.613281 74.179688 19.636719 74.332031 C 19.160156 75.082031 18.601562 75.167969 17.679688 74.65625 C 17.054688 74.308594 16.4375 73.933594 15.785156 73.652344 C 14.75 73.199219 14.011719 72.472656 13.515625 71.46875 C 13.488281 71.410156 13.457031 71.332031 13.402344 71.308594 C 12.574219 70.917969 12.539062 70.105469 12.503906 69.386719 C 12.441406 68.1875 12.292969 66.933594 12.671875 65.789062 C 12.957031 64.929688 13.28125 64.0625 13.769531 63.242188 C 14.289062 62.367188 14.988281 61.65625 15.574219 60.855469 C 15.890625 60.425781 16.503906 60.128906 17.007812 59.785156 C 16.765625 58.816406 17.09375 58.460938 18.417969 58.351562 Z M 18.417969 58.351562 "/>
<path style=" stroke:none;fill-rule:nonzero;fill:rgb(0%,0%,0%);fill-opacity:1;" d="M 27.792969 73.691406 C 29.367188 73.695312 30.847656 73.996094 32.339844 74.132812 C 33.449219 74.230469 34.535156 74.386719 35.625 74.617188 C 36.257812 74.753906 36.8125 75.042969 37.363281 75.339844 C 37.628906 75.484375 37.894531 75.792969 37.667969 76.121094 C 37.46875 76.414062 37.191406 76.59375 36.742188 76.410156 C 35.433594 75.871094 34.046875 75.671875 32.644531 75.511719 C 31.734375 75.410156 30.824219 75.324219 29.914062 75.179688 C 29.066406 75.042969 28.171875 75.09375 27.304688 75.160156 C 26.003906 75.257812 24.699219 75.371094 23.417969 75.605469 C 22.589844 75.757812 21.773438 75.902344 20.933594 75.996094 C 20.332031 76.0625 20.148438 75.648438 19.820312 75.390625 C 19.679688 75.277344 19.722656 75.046875 19.824219 74.878906 C 19.980469 74.617188 20.253906 74.535156 20.523438 74.539062 C 21.808594 74.550781 23.050781 74.269531 24.3125 74.070312 C 25.4375 73.894531 26.570312 73.652344 27.792969 73.691406 Z M 27.792969 73.691406 "/>
<path style=" stroke:none;fill-rule:nonzero;fill:rgb(0%,0%,0%);fill-opacity:1;" d="M 35.511719 11.941406 C 36.027344 12.238281 35.886719 12.71875 35.855469 13.082031 C 35.777344 14.074219 36.273438 14.988281 36.160156 15.972656 C 36.15625 15.996094 36.160156 16.019531 36.164062 16.042969 C 36.246094 16.5 36.082031 16.90625 35.683594 17.070312 C 35.265625 17.246094 35.164062 16.746094 34.929688 16.527344 C 34.730469 16.339844 34.71875 16.089844 34.675781 15.839844 C 34.550781 15.144531 34.390625 15.066406 33.777344 15.367188 C 33.0625 15.71875 32.023438 15.378906 31.65625 14.699219 C 31.480469 14.367188 31.558594 14.070312 31.753906 13.808594 C 31.964844 13.527344 32.328125 13.523438 32.554688 13.6875 C 32.945312 13.972656 33.304688 14.121094 33.722656 13.828125 C 34.191406 13.496094 34.386719 12.984375 34.480469 12.445312 C 34.582031 11.859375 34.875 11.6875 35.511719 11.941406 Z M 35.511719 11.941406 "/>
<path style=" stroke:none;fill-rule:nonzero;fill:rgb(0%,0%,0%);fill-opacity:1;" d="M 44.917969 12.066406 C 44.28125 11.664062 43.714844 11.757812 43.152344 12.105469 C 42.699219 12.382812 42.253906 12.394531 42.023438 11.867188 C 41.808594 11.386719 42.144531 11.121094 42.535156 10.84375 C 43.488281 10.167969 44.429688 10.1875 45.382812 10.773438 C 46.386719 11.390625 47.277344 10.96875 48.160156 10.503906 C 48.429688 10.359375 48.664062 10.214844 48.972656 10.367188 C 49.511719 10.632812 49.542969 10.917969 49.121094 11.347656 C 47.910156 12.585938 46.523438 12.816406 44.917969 12.066406 Z M 44.917969 12.066406 "/>
<path style=" stroke:none;fill-rule:nonzero;fill:rgb(0%,0%,0%);fill-opacity:1;" d="M 30.445312 14.378906 C 30.636719 14.605469 30.773438 14.816406 31.085938 14.730469 C 31.300781 14.675781 31.445312 14.789062 31.484375 14.996094 C 31.542969 15.320312 31.957031 15.617188 31.574219 15.980469 C 31.242188 16.296875 30.414062 16.359375 30.070312 16.074219 C 29.882812 15.917969 29.75 15.695312 29.566406 15.53125 C 29.40625 15.382812 29.203125 15.277344 29.011719 15.148438 C 28.738281 15.511719 28.496094 15.828125 28.511719 16.269531 C 28.527344 16.738281 28.21875 17.003906 27.835938 17.082031 C 27.46875 17.160156 27.191406 16.855469 27.035156 16.558594 C 26.730469 15.976562 26.75 15.335938 26.839844 14.699219 C 26.855469 14.597656 26.949219 14.425781 27.003906 14.425781 C 27.730469 14.421875 28.054688 13.613281 28.792969 13.589844 C 29.492188 13.566406 29.890625 14.0625 30.445312 14.378906 Z M 30.445312 14.378906 "/>
<path style=" stroke:none;fill-rule:nonzero;fill:rgb(0%,0%,0%);fill-opacity:1;" d="M 54.46875 11.703125 C 53.675781 11.4375 53.226562 10.882812 52.914062 10.175781 C 52.570312 9.398438 52.953125 8.757812 53.777344 8.859375 C 54.148438 8.90625 54.316406 8.785156 54.503906 8.539062 C 54.808594 8.136719 55.160156 7.792969 55.699219 7.734375 C 56.324219 7.664062 56.746094 8.136719 56.527344 8.734375 C 56.230469 9.542969 55.761719 10.277344 55.464844 11.09375 C 55.328125 11.484375 54.855469 11.519531 54.46875 11.703125 Z M 54.46875 11.703125 "/>
<path style=" stroke:none;fill-rule:nonzero;fill:rgb(0%,0%,0%);fill-opacity:1;" d="M 36.773438 13.214844 C 36.9375 12.171875 37.542969 11.527344 38.40625 11.097656 C 38.75 10.929688 39.074219 11.113281 39.367188 11.273438 C 40.125 11.6875 40.414062 12.476562 40.808594 13.171875 C 40.953125 13.429688 40.847656 13.644531 40.597656 13.804688 C 40.355469 13.957031 40.160156 14.207031 39.820312 13.953125 C 39.324219 13.578125 38.855469 13.605469 38.347656 14.015625 C 37.941406 14.34375 37.441406 14.253906 36.996094 14.015625 C 36.691406 13.855469 36.625 13.582031 36.773438 13.214844 Z M 36.773438 13.214844 "/>
</g>
</svg>
