<svg version="1.1" id="Layer_1" xmlns="http://www.w3.org/2000/svg" xmlns:xlink="http://www.w3.org/1999/xlink" x="0px" y="0px"
	 width="100%" viewBox="0 0 672 672" enable-background="new 0 0 672 672" xml:space="preserve">
<path fill="#000000" opacity="1.000000" stroke="none" 
	d="
M373.575928,501.337708 
	C370.971222,482.525085 370.942200,464.017029 370.919006,445.545837 
	C370.892426,424.374420 369.835266,403.260437 368.634155,382.143524 
	C368.173920,374.051758 368.038025,374.576538 360.111206,374.736206 
	C329.579315,375.351044 299.457001,373.392761 272.023132,357.777466 
	C269.424225,356.298187 266.748596,354.815369 264.513916,352.868835 
	C261.624878,350.352295 260.536285,346.874359 262.619171,343.417267 
	C264.764465,339.856567 268.183105,338.842804 272.161987,340.437103 
	C273.083893,340.806488 274.010803,341.217346 274.840088,341.755920 
	C292.566071,353.266876 312.436676,357.269073 333.118042,358.868622 
	C348.310120,360.043640 363.376648,360.152435 378.337677,356.866211 
	C391.547852,353.964539 402.089417,347.472382 408.176605,334.895630 
	C409.288696,332.597839 410.896820,330.765625 413.256744,329.581879 
	C415.922760,328.244629 416.362000,326.387756 414.384705,323.956024 
	C413.566437,322.949615 412.964264,321.683777 412.561249,320.439575 
	C411.453979,317.021454 412.385162,314.029327 415.456696,312.237823 
	C418.500366,310.462646 423.345276,312.315125 424.905212,315.600830 
	C426.618500,319.209625 425.626465,322.679657 422.217102,324.121216 
	C416.698944,326.454437 417.001404,328.268616 421.293640,331.749420 
	C424.194275,334.101685 423.725342,337.690002 422.205811,340.988586 
	C419.035370,347.870880 414.724304,353.885498 407.990845,358.889709 
	C424.181122,369.363831 431.521088,382.931580 422.969238,401.109955 
	C417.803680,412.090240 407.061310,423.365295 387.197388,421.025513 
	C385.729218,422.124054 386.268005,423.745819 386.270905,425.158966 
	C386.314026,446.145752 385.880676,467.144165 387.392853,488.101746 
	C388.290619,500.543945 390.942627,512.793030 391.560150,525.276367 
	C391.756378,529.242798 391.654175,532.982727 388.260864,535.714233 
	C385.976044,537.553467 387.190826,539.570496 387.733765,541.571106 
	C399.437958,543.633545 403.119324,552.383484 396.678741,563.477966 
	C390.399139,574.295227 380.267914,579.700989 368.414764,582.225769 
	C362.352875,583.517029 356.249054,584.033875 350.148560,582.074890 
	C343.065796,579.800476 337.620850,575.879333 335.664948,568.301331 
	C335.114136,566.167236 333.822998,565.381897 331.734589,565.226318 
	C316.265625,564.073425 302.638031,558.510315 291.186798,547.953308 
	C289.096741,546.026489 287.301605,546.943420 285.269806,547.811340 
	C277.100189,551.301270 268.727478,554.188965 259.691467,553.640686 
	C235.017456,552.143494 220.049133,531.655212 226.085663,507.595367 
	C228.556137,497.748779 232.420258,488.591003 241.417282,482.702362 
	C242.624146,481.912415 242.906464,480.912598 242.448410,479.718414 
	C235.047577,460.424042 229.785187,440.502502 225.309189,419.981384 
	C219.258148,420.792694 213.567947,422.051788 207.843567,422.233429 
	C187.786484,422.869873 178.396378,410.818359 183.345764,391.138947 
	C186.007446,380.555817 192.362106,372.682434 201.676010,367.226227 
	C205.544937,364.959778 209.522339,362.570465 213.769913,361.340179 
	C218.550262,359.955597 219.723145,357.431519 219.672455,352.784302 
	C219.309052,319.469116 224.909500,286.820374 232.058701,254.488113 
	C241.793747,210.461380 259.913910,169.855576 284.453369,132.068069 
	C288.895691,125.227425 292.318115,117.600754 297.471222,111.380692 
	C302.467865,105.349472 307.016174,99.012421 311.914917,92.934616 
	C314.802612,89.351891 316.010712,85.658463 315.615112,81.020111 
	C313.646301,57.936531 335.671204,42.626816 356.223694,47.571075 
	C367.714417,50.335369 374.835724,59.301262 375.261078,72.520897 
	C375.467712,78.943283 375.307617,85.132339 372.600861,91.509682 
	C369.939117,97.780922 369.730713,105.097565 368.500885,111.965347 
	C368.392303,112.571648 368.461304,113.472244 368.836426,113.862831 
	C373.634918,118.858376 372.044617,125.119774 372.272888,130.989243 
	C373.366394,159.104218 374.898163,187.193192 376.909271,215.258347 
	C377.609253,225.026520 377.960358,234.819702 378.474548,244.673538 
	C381.491608,245.009491 383.281738,242.795013 385.649567,242.200134 
	C392.445312,240.492874 398.173798,242.272720 402.824524,247.418945 
	C404.380737,249.140961 406.186218,250.931931 406.948364,253.029099 
	C411.506500,265.571960 420.054413,276.510803 421.890350,290.129303 
	C422.156219,292.101288 422.384583,294.104492 422.340088,296.086761 
	C422.245483,300.301758 420.261383,303.067932 415.827576,303.463165 
	C411.159088,303.879333 408.715027,301.333984 407.792450,297.029572 
	C407.339844,294.917847 407.158722,292.740509 406.604645,290.659485 
	C405.539520,286.658966 404.416443,282.786835 401.459961,279.484924 
	C398.916840,276.644684 397.942047,272.726379 396.910553,269.025085 
	C396.103455,266.128998 395.190704,263.305328 393.603546,260.705109 
	C391.606049,257.432648 389.326233,256.822662 386.336029,259.455414 
	C383.597595,261.866547 380.192535,263.392944 377.745636,266.254333 
	C376.015289,268.277832 373.378815,268.552948 370.816315,268.416443 
	C352.907837,267.462769 335.332642,269.950226 317.705750,272.802307 
	C309.186249,274.180786 301.132568,271.102875 294.854919,264.806519 
	C291.755432,261.697784 288.775757,257.708679 284.106812,258.653107 
	C279.141876,259.657379 277.036774,264.420532 275.486267,268.889435 
	C271.782623,279.564453 267.879486,290.212128 268.016846,301.775238 
	C268.028412,302.750336 267.638855,303.731506 267.426178,304.707764 
	C266.473267,309.082123 263.729980,311.525085 259.286255,311.134827 
	C254.936768,310.752869 253.001877,307.539215 252.777557,303.523773 
	C252.404083,296.838287 252.952545,290.149536 254.924515,283.749878 
	C257.848877,274.259521 259.500061,264.216248 265.032410,255.742874 
	C275.131775,240.274551 290.442535,238.316696 303.035065,251.805542 
	C308.554443,257.717773 313.335571,258.539612 320.671204,257.026855 
	C333.353119,254.411652 346.230438,252.396362 359.288483,252.723251 
	C362.445953,252.802292 363.842957,251.833267 363.625610,248.428604 
	C362.066620,224.009674 360.539215,199.588089 359.168427,175.157990 
	C358.245178,158.703445 357.575775,142.234467 356.833649,125.770103 
	C356.636139,121.388847 357.123230,117.146202 361.366730,112.825096 
	C356.548340,112.825096 352.936554,113.034546 349.357300,112.782120 
	C341.568237,112.232796 334.544952,109.030075 327.643860,105.742805 
	C324.349457,104.173538 322.365936,104.447327 320.116699,107.467133 
	C286.055084,153.197937 259.066437,202.332214 246.789032,258.627808 
	C240.143234,289.100922 235.712708,319.860565 234.338669,351.046051 
	C234.165924,354.967072 235.009644,356.828186 239.460785,356.740387 
	C246.293655,356.605591 247.832230,358.130157 249.959305,365.493713 
	C256.842712,364.462616 258.726959,369.549927 260.707184,374.747681 
	C263.677399,382.543915 263.113190,390.450256 261.661530,398.361298 
	C260.061798,407.079193 253.436310,411.002899 245.918503,413.434967 
	C241.037109,415.014191 240.236725,417.382874 241.358566,422.177338 
	C246.716873,445.077698 252.701843,467.748077 263.216614,488.937927 
	C274.018127,510.705627 289.231140,528.678284 309.329590,542.494019 
	C314.994781,546.388306 321.233246,548.236389 327.859070,549.362305 
	C330.233215,549.765686 331.093201,548.559143 331.991333,546.756958 
	C340.260376,530.164307 353.704865,520.626282 371.944092,517.831787 
	C374.995941,517.364197 375.831604,516.146240 375.201874,513.137024 
	C374.420990,509.405273 374.126343,505.571747 373.575928,501.337708 
M205.671707,406.840881 
	C217.959747,406.465088 229.492340,402.656525 241.086273,399.094971 
	C245.071838,397.870667 246.709442,395.240845 247.455460,391.175507 
	C248.743408,384.156860 245.314697,378.239349 243.987213,371.759674 
	C234.313705,371.777191 224.934814,372.624634 216.145126,376.734436 
	C207.099884,380.963776 199.373886,386.409302 197.600357,397.238831 
	C196.583038,403.450928 198.847794,406.510742 205.671707,406.840881 
M376.627045,532.847168 
	C375.467896,529.742981 374.288086,526.646362 373.159149,523.531250 
	C372.660461,522.155151 371.819946,520.956787 370.313782,521.226379 
	C366.066254,521.986511 360.662567,522.241577 358.840302,526.257874 
	C355.624268,533.346008 350.675293,537.672424 343.698486,540.355652 
	C342.058899,540.986267 341.515778,542.541443 341.695892,544.500732 
	C342.439575,552.591431 355.681976,562.182251 363.337097,559.453247 
	C374.396088,555.510864 382.557251,546.590637 376.627045,532.847168 
M334.116577,106.531990 
	C336.882904,108.066376 339.811493,108.313538 342.802917,107.442406 
	C344.973328,106.810356 357.502625,90.695885 357.731598,88.407959 
	C358.359833,82.131172 353.671814,73.880699 347.949921,71.127357 
	C346.242798,70.305893 344.415833,69.693123 342.664948,70.477959 
	C337.348663,72.860962 332.782410,76.367561 331.185852,82.140755 
	C329.872345,86.890350 328.806061,91.763206 327.829651,96.629105 
	C326.699188,102.262932 328.544525,104.750015 334.116577,106.531990 
M391.651215,368.868866 
	C382.512604,371.649323 382.524292,371.695038 383.437347,380.975281 
	C384.072601,387.431549 384.648407,393.896576 385.070251,400.369476 
	C385.232300,402.856110 386.141357,404.316376 388.567993,405.135254 
	C395.483978,407.469055 403.887909,403.714691 408.357086,396.128815 
	C412.788849,388.606445 411.675049,381.232941 405.418060,375.912781 
	C401.544006,372.618774 396.776459,371.033752 391.651215,368.868866 
M242.074142,526.211121 
	C247.793503,538.149963 264.375458,542.151978 275.708740,533.776245 
	C265.237732,522.504211 257.376404,509.378082 249.061005,495.339417 
	C241.506256,505.095551 238.332062,514.470459 242.074142,526.211121 
z"/>
<path fill="#000000" opacity="1.000000" stroke="none" 
	d="
M302.003357,298.000793 
	C307.217377,295.477783 316.021912,297.766968 319.019592,302.181976 
	C321.697357,306.125824 320.712433,311.385101 316.344421,313.872986 
	C309.972046,317.502533 303.132996,318.125061 296.179657,315.558167 
	C292.913086,314.352264 291.155029,311.744049 290.783203,308.355713 
	C290.394318,304.811798 292.286774,302.382263 295.101990,300.493713 
	C297.097137,299.155273 299.428711,298.835327 302.003357,298.000793 
z"/>
<path fill="#000000" opacity="1.000000" stroke="none" 
	d="
M368.579224,307.229889 
	C365.897858,301.258270 367.297577,296.989807 372.653320,294.745453 
	C375.847595,293.406891 379.206848,292.414642 382.558685,291.515686 
	C384.854523,290.899963 392.973999,297.048492 393.860504,299.823608 
	C395.123169,303.776337 393.109222,308.010040 388.444061,309.699310 
	C381.665710,312.153748 374.829468,313.024139 368.579224,307.229889 
z"/>
<path fill="#000000" opacity="1.000000" stroke="none" 
	d="
M366.429962,321.447632 
	C361.503113,324.523224 356.373657,324.014160 351.596130,323.000488 
	C346.667816,321.954803 342.083252,322.368225 337.372345,323.521301 
	C333.927948,324.364349 330.464844,324.502838 327.058655,323.318604 
	C324.611359,322.467743 322.991028,320.879669 323.527588,318.103516 
	C324.091766,315.184448 326.249603,313.026337 328.950745,313.029327 
	C333.612762,313.034485 330.870728,316.246063 330.438416,318.332642 
	C331.068726,318.494965 331.573792,318.798126 331.994324,318.707764 
	C340.825836,316.810181 349.649261,316.863800 358.507141,318.564819 
	C359.987030,318.849030 361.514709,318.325684 362.623352,317.185822 
	C363.921173,315.851501 364.885925,313.190338 367.221802,315.490570 
	C369.063782,317.304474 368.497009,319.427277 366.429962,321.447632 
z"/>
<path fill="#000000" opacity="1.000000" stroke="none" 
	d="
M266.530884,321.805847 
	C267.836884,326.709991 265.843475,329.734131 261.629730,330.836700 
	C258.197693,331.734711 255.441696,329.936432 254.194305,326.579010 
	C252.832840,322.914490 254.186905,319.927826 257.595978,318.319061 
	C261.323517,316.560059 264.293884,318.029602 266.530884,321.805847 
z"/>
</svg>