<svg version="1.1" id="Layer_1" xmlns="http://www.w3.org/2000/svg" xmlns:xlink="http://www.w3.org/1999/xlink" x="0px" y="0px"
	 width="100%" viewBox="0 0 736 704" enable-background="new 0 0 736 704" xml:space="preserve">
<path fill="#000000" opacity="1.000000" stroke="none" 
	d="
M268.468658,705.000000 
	C266.572723,703.615662 265.029541,702.331055 263.738129,700.829834 
	C258.074493,694.246094 253.395966,687.921997 254.263672,677.868530 
	C255.252808,666.408264 254.205734,654.623230 247.438141,644.213989 
	C243.628662,638.354675 241.399780,631.611206 239.190933,624.967712 
	C233.202225,606.955505 225.249298,589.682739 219.553375,571.540100 
	C212.524933,549.153198 209.952728,526.004333 206.820740,502.951874 
	C205.051926,489.932770 204.236023,476.784729 202.941269,463.699677 
	C202.833786,462.613373 203.100769,461.360809 201.649887,460.029083 
	C199.807205,466.248962 198.135330,472.217957 196.264587,478.123932 
	C193.946320,485.442841 191.229156,492.623993 186.224152,498.605957 
	C180.406067,505.559723 172.698822,507.861298 164.203995,505.563446 
	C155.310410,503.157745 152.442352,495.520325 151.863953,487.378815 
	C149.696777,456.874146 142.490234,427.267639 136.561768,397.416779 
	C132.698257,377.963379 126.997444,358.992432 122.396072,339.745178 
	C115.836845,312.308319 114.859962,284.682922 119.958267,256.638550 
	C124.272751,232.905716 133.580841,211.969391 148.623123,193.322327 
	C155.133636,185.251633 163.290359,179.267410 172.232864,174.376785 
	C176.489685,172.048721 178.044434,169.258499 177.712952,164.449524 
	C175.987640,139.419540 180.832764,115.452988 190.128754,92.302254 
	C194.059952,82.512032 200.086197,73.892159 205.867661,65.322075 
	C205.758102,64.795303 205.789825,64.401657 205.611481,64.169174 
	C199.051346,55.618591 198.620560,50.442043 206.601013,43.259041 
	C225.086548,26.620659 245.336182,13.176266 271.751984,13.708898 
	C274.757477,13.769499 277.743134,13.759374 280.593536,12.556126 
	C310.475464,-0.058085 341.320496,1.022939 372.468933,6.015872 
	C378.732208,7.019838 384.846588,8.529281 390.906921,10.328983 
	C393.359314,11.057261 395.835480,11.277773 398.301300,10.562800 
	C409.300415,7.373559 419.713409,9.392043 429.821503,14.067936 
	C445.668274,21.398489 459.310852,31.638063 469.754272,45.683113 
	C474.586304,52.181580 478.000061,59.483360 474.993835,68.029022 
	C474.452118,69.568947 475.347626,70.548111 476.111237,71.634087 
	C491.846619,94.012421 500.581421,119.165009 505.051575,145.894135 
	C505.840546,150.611847 507.640717,151.761459 512.131531,151.818237 
	C534.679626,152.103333 553.537842,160.614838 569.538391,176.719620 
	C584.642456,191.922119 592.271118,210.973770 599.248291,230.376282 
	C607.887207,254.399918 613.140076,279.204987 615.589783,304.721100 
	C617.183899,321.324524 619.170898,337.902435 618.217712,354.534241 
	C616.677185,381.413116 616.031250,408.487061 608.509705,434.626404 
	C604.131226,449.842896 597.770386,464.336029 590.809448,478.555267 
	C586.100708,488.173828 580.870911,497.404816 572.990601,504.885803 
	C561.849060,515.462708 545.190979,518.171387 532.785400,511.784821 
	C524.681030,507.612518 524.436157,500.184357 524.603699,492.921356 
	C524.914551,479.450348 526.744019,465.977997 526.452759,452.538483 
	C526.074829,435.098297 524.878906,417.615601 520.667480,400.540985 
	C520.206604,398.672394 519.929871,396.670959 517.780090,395.190765 
	C515.420532,405.784576 513.225525,416.143250 510.797302,426.446960 
	C503.582581,457.061279 492.248962,486.216248 478.590698,514.442444 
	C466.040680,540.378296 451.808289,565.446289 437.367218,590.369690 
	C430.586761,602.071899 422.069092,612.504272 412.576569,622.222778 
	C398.159790,636.982666 383.015106,651.053650 369.787323,666.960449 
	C364.223389,673.651367 359.706299,681.041382 355.170929,688.402039 
	C351.663788,694.093811 348.103760,699.683167 343.192169,704.728149 
	C318.312439,705.000000 293.624878,705.000000 268.468658,705.000000 
M423.387573,587.900757 
	C429.833130,577.591125 434.937927,566.517639 441.167755,556.109985 
	C461.599243,521.976868 478.040955,486.020447 490.412811,448.274719 
	C498.554474,423.435028 502.730438,397.599182 507.549805,371.957489 
	C507.865906,370.275696 507.420197,368.726898 506.642059,367.157471 
	C499.527374,352.808075 491.619904,339.043579 481.549316,326.425629 
	C464.394104,304.930847 444.230042,288.058411 417.176544,280.672455 
	C416.375488,280.453766 415.551819,280.239227 414.819183,279.865112 
	C413.375214,279.127777 412.558838,277.922638 412.603668,276.248291 
	C412.654785,274.340515 414.051575,273.774933 415.567657,273.409973 
	C419.179230,272.540588 422.789368,272.515442 426.461823,273.193573 
	C441.990601,276.061127 455.188477,283.863556 467.213867,293.471863 
	C488.461426,310.448700 504.485931,331.697205 517.067810,355.805817 
	C525.723816,372.391968 533.830200,389.073486 538.166138,407.386414 
	C539.091125,411.293304 538.840942,415.559113 541.450256,419.765961 
	C544.046570,413.927490 546.260986,409.092499 544.927856,402.753510 
	C541.657654,387.203278 536.489929,372.353485 530.902100,357.530365 
	C519.919067,328.395081 505.940369,301.624908 479.070435,283.609589 
	C468.456696,276.493469 457.853760,269.809937 444.739807,268.629456 
	C441.099457,268.301788 437.453735,268.012238 433.826019,267.575836 
	C431.999878,267.356110 429.782623,266.959808 430.008575,264.546570 
	C430.215088,262.341217 432.364655,262.088959 434.225647,261.796539 
	C441.205139,260.699860 448.224304,260.681274 455.065735,262.274719 
	C477.956085,267.606201 496.385162,280.568665 511.713593,297.716919 
	C527.106506,314.937347 536.648132,335.712341 545.038025,357.083008 
	C553.673584,379.079407 561.168762,401.174042 559.332275,425.344147 
	C558.434692,437.158264 557.597900,448.945251 552.311523,459.822968 
	C551.077332,462.362610 550.112000,465.452240 546.545532,465.639221 
	C545.101318,464.303558 544.895630,462.712524 545.144836,461.287628 
	C546.076538,455.959686 545.823242,450.597534 544.681213,445.452850 
	C544.009888,442.428650 547.216553,441.793304 547.013916,439.339905 
	C546.828308,437.093536 546.151367,435.076660 545.045532,433.222107 
	C544.001160,431.470551 541.732483,430.638641 541.392334,428.276917 
	C541.535156,446.407471 540.399658,464.316681 537.814087,482.129944 
	C537.568054,483.825226 537.080322,485.628357 538.770935,486.686951 
	C543.312012,489.530365 542.273254,493.865753 541.782654,497.905396 
	C541.492554,500.293976 540.783936,502.515686 543.106201,504.248596 
	C545.659363,506.153809 548.398438,506.154083 551.111450,504.767090 
	C555.004761,502.776672 558.446777,500.154144 561.200928,496.724762 
	C571.732422,483.611237 579.555237,468.606476 585.360107,453.238525 
	C593.749268,431.029175 597.544312,407.378174 600.056580,383.656891 
	C600.885010,375.834717 600.649658,368.018341 600.983582,360.202881 
	C602.021423,335.914856 603.041443,311.668732 598.842285,287.482758 
	C595.422485,267.785217 592.416565,247.997787 584.626099,229.451599 
	C577.572083,212.658615 569.208191,196.430527 555.348511,184.107727 
	C543.444702,173.523834 530.045776,165.660248 513.229431,166.078552 
	C507.027649,166.232819 506.839661,166.308945 508.014221,172.665024 
	C513.590027,169.772751 515.863525,170.625641 516.334167,175.753387 
	C516.552917,178.136673 516.235596,180.430481 515.165039,182.557968 
	C513.128113,186.605957 510.282684,190.112564 507.339111,193.502396 
	C485.676117,218.449341 459.783325,238.247787 430.859711,253.801132 
	C420.498901,259.372559 410.410950,266.372101 397.993164,267.783264 
	C393.701843,268.270966 391.069733,271.842285 390.118958,276.442230 
	C395.094696,277.954559 399.063049,274.391815 403.544342,274.691803 
	C405.672668,274.834290 408.113770,274.305603 409.031799,277.012115 
	C410.014069,279.908112 407.783173,281.215210 405.899750,282.582092 
	C405.096619,283.164978 404.187439,283.613190 403.295166,284.060089 
	C392.445343,289.494354 381.988037,295.002136 373.557678,304.494965 
	C356.869202,323.286682 342.947205,343.163849 336.079712,367.877716 
	C330.655243,387.398682 329.002625,407.434113 325.334290,427.177124 
	C322.940125,440.062683 322.577332,453.351868 318.152161,465.830292 
	C311.443359,484.748199 300.583130,500.557190 282.544281,510.372070 
	C276.797485,513.498901 270.329254,514.633301 263.686981,513.738281 
	C245.789642,511.326843 233.812027,500.917084 225.774414,485.384674 
	C224.192642,482.327972 222.643158,480.081024 218.431473,481.485718 
	C218.364563,482.968445 218.286484,484.599640 218.218048,486.231262 
	C217.839645,495.256866 218.727234,504.178467 220.264175,513.065430 
	C222.641724,526.813110 224.506287,540.662781 227.319778,554.318542 
	C231.506927,574.641785 240.005951,593.562622 247.515686,612.781433 
	C252.257050,624.915405 254.662796,638.105774 263.464142,648.446655 
	C264.041290,649.124695 264.115936,650.315308 264.226990,651.289978 
	C264.640778,654.922485 265.033936,658.559570 265.320312,662.203857 
	C265.756714,667.756836 266.097778,673.317261 266.447723,678.414246 
	C281.431458,678.414246 295.740814,678.373901 310.049408,678.462646 
	C311.946259,678.474365 312.677338,677.577087 313.365997,676.110168 
	C323.426727,654.680481 336.844727,635.159607 348.464478,614.614868 
	C349.564087,612.670654 350.519653,610.032715 353.188904,609.523499 
	C354.405518,610.471619 354.300659,611.530212 354.197113,612.485657 
	C353.203094,621.657715 351.202362,630.517517 346.401581,638.576050 
	C338.837250,651.273315 330.451324,663.567017 328.143860,678.716370 
	C327.000061,686.225891 328.556824,689.979919 335.917694,693.931824 
	C338.286865,690.382751 340.876007,686.912720 343.039215,683.194824 
	C354.035828,664.295349 368.864777,648.564697 384.296326,633.375183 
	C398.430359,619.462830 412.564026,605.595825 423.387573,587.900757 
M431.802399,76.336884 
	C441.334747,73.280075 450.630310,69.621910 459.306702,64.607910 
	C464.743286,61.466152 465.351532,59.344688 461.774811,54.185715 
	C449.291870,36.180485 433.424988,22.996178 411.040192,19.150301 
	C406.707275,18.405869 403.088226,19.043644 399.944000,21.894035 
	C397.667236,23.958084 395.564819,24.055431 392.719055,22.968216 
	C381.452087,18.663792 369.700836,16.292130 357.700012,15.393740 
	C331.103790,13.402732 305.176147,16.749361 280.079254,25.871441 
	C276.768311,27.074881 274.269897,27.127317 271.448700,24.657684 
	C268.561981,22.130699 264.795593,22.940464 261.373810,23.638557 
	C257.953888,24.336264 254.540878,25.206064 251.244186,26.345673 
	C237.499634,31.096922 225.524811,38.850800 214.793259,48.535816 
	C212.094666,50.971252 210.954041,53.963341 214.364395,57.107620 
	C222.174088,64.308060 230.822098,70.349144 241.038193,73.250214 
	C253.293884,76.730469 253.825500,75.402168 257.622620,63.741386 
	C259.677399,57.431225 260.841675,50.836044 262.694183,44.452583 
	C263.424713,41.935310 264.784058,38.931564 268.021332,39.448265 
	C271.391449,39.986176 271.785614,43.240971 272.073029,46.125027 
	C272.138550,46.782566 272.133606,47.473431 272.009094,48.119659 
	C270.179443,57.614235 268.213104,67.082291 263.354492,75.608734 
	C259.034424,83.190102 255.074020,84.988281 246.433456,83.468735 
	C237.144791,81.835220 228.553680,78.143150 220.269333,73.872696 
	C216.645615,72.004723 214.572159,72.593285 212.311554,75.617020 
	C208.798096,80.316513 205.602875,85.238777 203.488708,90.667862 
	C191.052399,122.604210 186.064514,155.429718 192.396912,189.482544 
	C193.611877,196.016098 193.515427,203.571442 196.940918,208.711426 
	C200.877167,214.617798 200.918518,220.353287 201.261322,226.476776 
	C201.917816,238.203842 205.188309,249.070770 211.524277,258.958038 
	C214.099411,262.976501 217.790573,265.907745 222.081543,267.874573 
	C228.250214,270.702087 232.905167,268.762207 235.111862,262.347565 
	C236.949295,257.006317 237.940201,251.648514 236.895462,245.740326 
	C235.633926,238.606216 234.146179,231.750992 230.274887,225.527786 
	C229.172043,223.754929 227.764847,221.557938 229.806915,219.612900 
	C231.825790,217.689926 233.995316,219.324585 235.798813,220.244598 
	C241.519684,223.162872 244.467087,228.397430 246.378922,234.205765 
	C247.442825,237.438019 249.417297,238.576202 252.642914,238.682770 
	C276.238800,239.462250 299.132019,244.581528 321.915497,250.231171 
	C324.815826,250.950378 326.704987,250.726898 329.023163,248.673676 
	C335.946503,242.541641 344.928192,239.734009 352.587585,234.727402 
	C354.887085,233.224304 357.216339,234.315735 358.664673,236.457275 
	C360.125946,238.617981 358.494629,240.193588 357.103699,241.658813 
	C354.665558,244.227188 351.797943,246.218033 348.590332,247.692993 
	C335.544647,253.691879 329.510223,264.717987 326.872253,278.107819 
	C325.992950,282.570923 327.801483,285.873260 331.935852,287.885925 
	C336.644562,290.178253 341.588531,290.259216 346.598907,289.434296 
	C361.218750,287.027344 372.158234,278.538055 381.392029,267.656097 
	C387.659851,260.269562 392.267242,251.755875 396.066132,242.826035 
	C396.757996,241.199768 397.381348,239.072754 399.697784,239.275177 
	C401.988708,239.475372 402.888062,241.399902 403.607941,243.348907 
	C404.565765,245.942215 403.415741,248.219330 402.722076,250.612442 
	C402.177643,252.490723 401.381592,254.753265 403.220215,256.198639 
	C404.973572,257.576935 406.677155,256.022003 408.203949,255.080856 
	C414.298645,251.324051 420.468903,247.677933 426.428467,243.715942 
	C449.914398,228.102295 472.699463,211.630905 491.625732,190.407440 
	C494.488342,187.197403 495.580292,183.825821 495.842834,179.616699 
	C496.758179,164.943039 493.462097,150.815903 490.883545,136.573257 
	C487.264191,116.581879 480.345093,97.805389 470.651581,79.978111 
	C468.699799,76.388596 466.626709,75.892754 463.038513,77.528847 
	C453.923462,81.685013 444.171539,84.103638 434.575012,86.757805 
	C427.749451,88.645592 420.734039,90.242439 413.476685,90.447472 
	C407.736877,90.609627 404.463257,88.329544 402.622925,83.017212 
	C398.911713,72.304222 398.581024,61.126415 397.890137,50.017105 
	C397.655182,46.239647 400.556244,44.795113 404.021820,46.384098 
	C406.531616,47.534855 407.649597,49.659321 408.255951,52.208607 
	C409.910431,59.164726 411.664490,66.097649 413.264313,73.066116 
	C414.408997,78.052101 417.657318,79.377998 422.236023,78.492996 
	C425.176941,77.924568 428.087402,77.198799 431.802399,76.336884 
M187.071823,341.546844 
	C187.843231,345.124756 188.680161,348.689972 189.376114,352.282501 
	C198.764603,400.746918 216.245834,445.865784 244.445877,486.645050 
	C249.495865,493.947693 256.030487,498.366516 264.565338,500.166656 
	C273.212860,501.990570 285.088196,494.021271 286.729706,485.368896 
	C289.933990,468.479095 290.053131,451.298309 291.609406,434.254364 
	C292.653229,422.822662 293.344269,411.359100 294.239746,399.913422 
	C295.711884,381.096069 302.171967,363.606140 308.722473,346.160706 
	C312.415161,336.326233 316.712372,326.784973 322.961273,318.213135 
	C327.340485,312.206085 331.427582,305.986084 335.575562,299.962158 
	C333.853973,297.179413 331.095215,297.215271 328.827606,296.399841 
	C321.496796,293.763824 315.906952,289.500610 314.273529,281.407410 
	C313.266296,276.416901 315.132538,271.832214 316.850403,267.374939 
	C318.178314,263.929626 317.617645,261.980255 314.021515,260.995728 
	C312.417664,260.556641 310.874542,259.889038 309.264496,259.480286 
	C292.341797,255.184052 275.465118,250.738754 257.936981,249.406845 
	C249.914368,248.797256 249.332565,248.964844 249.198135,256.877838 
	C248.957108,271.064728 239.608582,280.340881 225.586121,280.375793 
	C212.886765,280.407410 204.471527,273.535767 198.040833,263.417419 
	C196.389847,260.819702 195.628021,257.575134 192.793228,255.806503 
	C190.031586,258.352173 189.969955,258.766296 188.320450,264.498138 
	C181.044556,289.781158 183.382874,315.229340 187.071823,341.546844 
M172.572403,455.892059 
	C176.456116,461.037292 180.339813,466.182495 184.556458,471.768799 
	C186.000214,469.297668 184.596558,466.834259 186.772339,465.934418 
	C190.390289,464.438110 191.174469,461.195374 191.959183,457.935272 
	C193.007660,453.579498 194.058289,449.222595 194.997131,444.842407 
	C197.597046,432.712341 198.818848,420.817291 194.484421,408.533081 
	C189.292130,393.817566 185.070511,378.747162 181.094299,363.623932 
	C176.725952,347.009247 173.022354,330.198975 172.196655,313.101288 
	C171.019333,288.722168 174.893265,265.039673 186.623001,243.161377 
	C188.181641,240.254242 189.141327,237.309357 185.545090,235.436676 
	C174.397171,229.631561 160.373566,227.579010 148.523590,235.497375 
	C136.845886,243.300629 131.323761,255.157867 128.415298,268.280426 
	C122.052986,296.986176 128.609161,324.083344 139.412369,350.556396 
	C139.537292,350.862518 139.795792,351.121613 139.885803,351.433289 
	C141.721100,357.789185 146.434418,363.601990 145.748520,370.292084 
	C144.808258,379.462799 147.750214,387.176361 151.805542,394.868713 
	C153.483459,398.051453 156.076523,401.178894 154.296692,405.078003 
	C150.799469,412.739471 154.741943,419.993958 155.228912,427.431335 
	C155.298294,428.491089 155.752029,429.392029 156.810669,429.765015 
	C158.321533,430.297363 158.865570,429.255646 159.361755,428.114471 
	C159.707550,427.319244 160.252747,426.703796 162.211807,426.417603 
	C164.821671,436.311768 165.861023,446.808533 172.572403,455.892059 
M329.193481,327.678741 
	C321.415375,341.008545 317.587036,355.923676 312.302490,370.238892 
	C309.081360,378.964630 307.245667,388.186554 306.395386,397.438965 
	C304.585052,417.138214 303.168732,436.876160 301.826508,456.614227 
	C301.489288,461.573608 300.425385,466.626099 301.528290,471.851105 
	C303.990784,470.898346 304.649963,469.086243 305.422150,467.497833 
	C309.020538,460.095825 311.128296,452.259277 311.624054,444.045898 
	C313.047760,420.461578 315.820160,397.071747 321.823700,374.168396 
	C327.126221,353.939331 334.740814,334.733643 347.171234,317.663971 
	C352.008118,311.021851 356.477295,304.112030 361.217621,297.172363 
	C356.006073,295.882202 352.814728,296.710815 349.238831,300.674652 
	C341.866211,308.847046 335.466095,317.768250 329.193481,327.678741 
M182.097565,212.279449 
	C184.731796,210.937302 183.465378,208.928040 182.927597,207.107117 
	C181.274460,201.509735 180.076157,195.831512 179.688766,189.997818 
	C179.543259,187.806564 179.074295,185.747375 176.898468,183.498291 
	C167.599350,190.977875 156.751282,196.777435 151.439270,209.319229 
	C161.975891,210.375107 171.866180,209.607849 182.097565,212.279449 
M146.990570,221.071747 
	C146.259598,224.225204 148.162811,223.640381 150.095276,223.387955 
	C156.439697,222.559265 162.624146,220.500931 169.144073,220.951035 
	C170.152664,221.020645 171.560577,221.274063 171.963409,219.597763 
	C171.687607,218.650864 170.886780,218.490936 170.044586,218.469833 
	C164.768845,218.337769 159.492462,218.129486 154.216751,218.141769 
	C151.611176,218.147842 149.027023,218.631348 146.990570,221.071747 
z"/>
<path fill="#000000" opacity="1.000000" stroke="none" 
	d="
M409.095398,375.769257 
	C407.461029,393.118347 406.290375,410.057770 404.154755,426.874664 
	C400.703552,454.051514 399.268982,481.615631 391.879578,508.121002 
	C383.883850,536.801147 374.854309,565.200562 363.022369,592.602783 
	C362.190002,594.530518 361.542877,596.699341 358.536774,597.951965 
	C357.772522,592.196472 359.266235,586.927490 360.640472,581.937561 
	C367.995026,555.232178 375.960358,528.693970 383.213959,501.962158 
	C386.784332,488.804260 387.647400,475.092987 389.527588,461.610687 
	C391.776001,445.487946 393.847015,429.305542 395.035339,413.078735 
	C396.504456,393.017090 398.934937,373.046082 399.949402,352.934326 
	C400.801910,336.034241 401.541718,319.036957 405.546997,302.447723 
	C405.930695,300.858551 405.817474,298.760132 407.821503,298.411499 
	C410.141571,298.007812 410.697784,300.289978 411.560974,301.803040 
	C413.201691,304.678894 413.165985,307.872711 412.976379,311.052795 
	C411.699677,332.470459 410.410828,353.887390 409.095398,375.769257 
z"/>
<path fill="#000000" opacity="1.000000" stroke="none" 
	d="
M447.852570,434.605286 
	C447.037384,432.556458 446.549255,430.627472 448.915100,429.842987 
	C450.248169,429.400970 451.177124,430.576538 451.108246,431.847229 
	C451.012878,433.605377 450.934662,435.758240 447.852570,434.605286 
z"/>
<path fill="#000000" opacity="1.000000" stroke="none" 
	d="
M350.475952,132.036484 
	C359.598694,129.166550 368.674866,132.882736 371.219330,140.219635 
	C374.278992,149.042297 370.849396,157.730515 363.163544,160.627136 
	C355.642853,163.461502 345.857544,159.472565 342.444855,152.181259 
	C338.925964,144.663025 342.061218,136.490662 350.475952,132.036484 
z"/>
<path fill="#000000" opacity="1.000000" stroke="none" 
	d="
M299.252594,169.863983 
	C297.214722,167.339737 295.489105,167.198227 293.180267,169.200119 
	C289.214355,172.638702 284.535797,174.734344 279.297516,175.578827 
	C274.425415,176.364258 270.564545,174.340347 270.353546,170.190247 
	C270.105011,165.301254 273.802856,164.931458 277.531677,164.748413 
	C286.790009,164.293915 290.039948,161.409119 291.758575,152.324936 
	C292.392090,148.976364 294.736450,148.017883 297.667694,148.465973 
	C300.593933,148.913300 302.592407,150.502167 302.150421,153.905304 
	C301.291901,160.515900 306.045868,166.155518 313.011993,166.690430 
	C314.999878,166.843063 317.019012,166.629425 318.999420,166.827728 
	C321.582458,167.086365 323.366699,168.578094 323.832886,171.161728 
	C324.358643,174.075699 322.302429,175.466354 320.017700,176.222229 
	C312.715240,178.638199 306.759949,175.297119 300.982605,171.446777 
	C300.434967,171.081772 299.992889,170.558334 299.252594,169.863983 
z"/>
<path fill="#000000" opacity="1.000000" stroke="none" 
	d="
M245.182297,154.967438 
	C239.738846,150.516510 238.045578,145.186371 239.835175,138.758911 
	C241.389679,133.175781 245.362686,130.333176 250.758102,129.080963 
	C257.494965,127.517448 263.505615,130.595505 265.551483,136.672348 
	C267.892578,143.626007 264.691833,152.174988 258.440796,154.976685 
	C254.240143,156.859421 249.844711,157.438370 245.182297,154.967438 
z"/>
<path fill="#000000" opacity="1.000000" stroke="none" 
	d="
M457.383820,107.437263 
	C458.811005,109.731621 458.632141,111.514732 456.109161,111.816360 
	C445.937653,113.032349 435.740082,115.416237 425.538239,112.104881 
	C423.820221,111.547241 422.203979,110.602188 420.637299,109.673271 
	C419.137695,108.784142 418.041412,107.370689 418.203857,105.589371 
	C418.396606,103.475487 420.123199,102.387596 421.974182,102.122643 
	C431.516388,100.756752 441.087616,99.426224 450.758453,100.247635 
	C454.739899,100.585800 455.783417,104.148354 457.383820,107.437263 
z"/>
<path fill="#000000" opacity="1.000000" stroke="none" 
	d="
M443.842712,122.654144 
	C446.949249,125.941574 450.594940,130.033859 448.691010,133.477936 
	C446.761688,136.967850 441.449097,135.081573 437.613281,134.432404 
	C433.226807,133.690063 428.720184,133.256989 424.753571,130.919357 
	C422.321838,129.486282 420.340759,127.617714 421.052307,124.560913 
	C421.803284,121.334702 424.692200,121.558067 427.141479,121.693535 
	C432.583069,121.994514 438.076233,121.274651 443.842712,122.654144 
z"/>
<path fill="#000000" opacity="1.000000" stroke="none" 
	d="
M403.735321,158.720215 
	C405.183472,158.766830 406.204773,158.694489 407.159637,158.912720 
	C409.376007,159.419296 411.294098,160.396072 411.401489,163.047638 
	C411.500458,165.490997 409.785583,166.731506 407.802612,167.200195 
	C400.556274,168.912964 393.291443,170.612457 385.731140,169.267487 
	C383.576263,168.884140 381.759705,168.123215 381.474487,165.813095 
	C381.193268,163.535629 382.785980,162.143295 384.662262,161.246658 
	C388.340912,159.488724 392.385986,159.502274 396.325439,159.084793 
	C398.629578,158.840637 400.959808,158.842224 403.735321,158.720215 
z"/>
<path fill="#000000" opacity="1.000000" stroke="none" 
	d="
M404.598206,184.308990 
	C406.757721,186.238281 408.861450,187.957153 406.892700,190.794479 
	C404.998505,193.524399 402.435211,193.225189 399.839020,191.904541 
	C394.530548,189.204208 389.214661,186.516113 383.958527,183.716476 
	C381.832672,182.584183 379.863434,180.971390 380.984741,178.217987 
	C382.037964,175.631805 384.562714,175.399017 386.932098,175.806503 
	C393.479065,176.932434 398.522888,181.303329 404.598206,184.308990 
z"/>
<path fill="#000000" opacity="1.000000" stroke="none" 
	d="
M205.447540,183.559143 
	C199.998276,180.473541 199.894669,177.389145 204.906723,174.560577 
	C209.392151,172.029205 214.308807,170.515594 219.214340,169.046387 
	C221.540756,168.349609 223.549896,169.011459 224.467255,171.451248 
	C225.291656,173.643814 224.441284,175.220261 222.378250,176.349289 
	C217.063889,179.257660 212.245529,183.267838 205.447540,183.559143 
z"/>
<path fill="#000000" opacity="1.000000" stroke="none" 
	d="
M212.096863,163.005020 
	C208.923157,161.868423 205.880783,161.531021 203.363937,159.742004 
	C201.421295,158.361145 200.233139,156.632568 201.172379,154.230301 
	C202.002502,152.107132 203.840836,151.250565 206.027618,151.570328 
	C212.026398,152.447449 217.528122,154.822128 222.857086,157.575989 
	C224.423019,158.385223 225.140121,160.020660 224.812546,161.824051 
	C224.503448,163.525681 223.080276,164.051376 221.605469,164.582855 
	C218.260040,165.788452 215.427536,164.148956 212.096863,163.005020 
z"/>
<path fill="#000000" opacity="1.000000" stroke="none" 
	d="
M229.013046,117.411896 
	C232.243958,119.458763 230.189087,120.904800 228.571121,121.900078 
	C223.788376,124.842186 218.337448,126.048653 212.894318,125.609848 
	C209.331009,125.322594 207.348663,121.667015 207.073929,118.461784 
	C206.785095,115.092026 210.436493,115.420090 212.667877,115.097130 
	C218.181335,114.299141 223.356995,116.483322 229.013046,117.411896 
z"/>
<path fill="#000000" opacity="1.000000" stroke="none" 
	d="
M222.646149,97.304878 
	C226.017395,97.400284 227.922012,99.259430 229.963943,101.388763 
	C227.581879,104.187927 225.000320,104.918274 221.481293,104.438187 
	C222.283310,101.970383 219.558960,99.503952 222.646149,97.304878 
z"/>
</svg>