<?xml version="1.0" encoding="UTF-8"?>
<svg xmlns="http://www.w3.org/2000/svg" xmlns:xlink="http://www.w3.org/1999/xlink" width="85px" height="85px" viewBox="0 0 85 85" version="1.1">
<g id="surface1">
<path style=" stroke:none;fill-rule:nonzero;fill:rgb(0%,0%,0%);fill-opacity:1;" d="M 53.167969 45.179688 C 54.253906 45.253906 55.304688 44.988281 56.285156 45.46875 C 56.328125 45.488281 56.390625 45.488281 56.4375 45.476562 C 57.585938 45.210938 58.714844 45.242188 59.882812 45.453125 C 60.550781 45.574219 61.289062 44.652344 61.265625 43.878906 C 61.234375 42.929688 61.554688 42.199219 62.375 41.664062 C 63.234375 43.667969 62.433594 45.371094 60.222656 46.304688 C 60.203125 46.75 60.648438 46.941406 60.835938 47.265625 C 61.355469 48.179688 60.996094 49.015625 60.613281 49.6875 C 60.226562 50.359375 59.757812 51.027344 58.90625 51.480469 C 58.234375 51.84375 57.53125 52.28125 56.828125 52.667969 C 56.621094 52.78125 56.519531 52.984375 56.519531 53.238281 C 56.519531 54.183594 56.074219 55.015625 55.835938 55.898438 C 55.550781 56.949219 55.320312 58.011719 54.980469 59.042969 C 54.636719 60.082031 54.472656 61.234375 53.261719 61.777344 C 52.824219 61.976562 52.667969 62.570312 52.40625 62.980469 C 52.113281 63.429688 51.761719 63.792969 51.414062 64.175781 C 51.03125 64.597656 50.582031 64.953125 50.34375 65.519531 C 50.214844 65.820312 49.875 66.078125 49.519531 66.253906 C 48.988281 66.523438 48.441406 66.789062 48.019531 67.238281 C 47.941406 67.324219 47.808594 67.417969 47.703125 67.414062 C 46.441406 67.382812 45.15625 67.699219 43.945312 66.96875 C 43.375 66.621094 43.195312 66.15625 43.054688 65.59375 C 42.847656 64.789062 42.679688 63.992188 42.75 63.144531 C 42.78125 62.78125 42.40625 62.628906 42.066406 62.597656 C 40.949219 62.5 39.832031 62.359375 38.726562 62.230469 C 37.152344 62.042969 35.53125 62.023438 34.007812 61.621094 C 32.792969 61.300781 31.613281 61.453125 30.417969 61.375 C 29.707031 61.324219 29.066406 61.675781 28.386719 61.816406 C 26.785156 62.148438 25.148438 62.136719 23.585938 61.863281 C 22.558594 61.683594 21.964844 61.171875 22.105469 59.769531 C 22.171875 59.148438 21.980469 58.507812 22.238281 57.898438 C 22.722656 56.761719 23.710938 56.167969 24.792969 55.878906 C 25.566406 55.675781 25.984375 55.414062 26.214844 54.628906 C 26.59375 53.304688 27.121094 52.03125 28.277344 51.007812 C 26.867188 50.175781 25.851562 49.171875 25.738281 47.496094 C 25.621094 45.730469 26.398438 44.6875 28.191406 44.363281 C 27.953125 44.015625 27.804688 43.796875 27.664062 43.59375 C 27.792969 43.316406 28.023438 43.351562 28.207031 43.371094 C 28.953125 43.460938 29.53125 43.164062 30.015625 42.632812 C 30.296875 42.324219 30.535156 42.265625 30.902344 42.5625 C 31.359375 42.925781 31.902344 43.105469 32.519531 43.066406 C 33.226562 43.019531 33.9375 43.023438 34.644531 43.066406 C 35.1875 43.097656 35.675781 42.828125 36.175781 42.796875 C 37.382812 42.722656 38.527344 43.089844 39.613281 43.628906 C 40.0625 43.851562 40.199219 44.304688 40.398438 44.695312 C 40.628906 45.15625 40.855469 45.355469 41.316406 44.980469 C 41.449219 44.871094 41.660156 44.847656 41.773438 44.726562 C 42.796875 43.625 44 43.84375 45.242188 44.203125 C 45.550781 44.292969 45.894531 44.277344 46.222656 44.265625 C 47.65625 44.222656 49.035156 44.570312 50.433594 44.804688 C 51.308594 44.953125 52.210938 45.035156 53.167969 45.179688 M 28.261719 53.410156 C 27.902344 54.238281 27.785156 55.117188 27.828125 56 C 27.851562 56.539062 27.765625 56.890625 27.246094 57.175781 C 26.808594 57.414062 26.453125 57.871094 26.503906 58.410156 C 26.550781 58.925781 27.027344 59.109375 27.480469 59.238281 C 28.957031 59.65625 30.460938 59.78125 31.976562 59.570312 C 32.609375 59.484375 33.238281 59.417969 33.863281 59.53125 C 34.496094 59.644531 35.074219 59.59375 35.585938 59.179688 C 35.835938 58.976562 36.082031 58.996094 36.230469 59.253906 C 36.554688 59.816406 37.058594 59.851562 37.609375 59.804688 C 38.984375 59.6875 40.207031 60.074219 41.289062 60.921875 C 41.476562 61.070312 41.679688 61.152344 41.90625 61.195312 C 42.765625 61.367188 43.59375 61.648438 44.433594 61.882812 C 44.957031 62.027344 45.042969 62.265625 44.832031 62.695312 C 44.667969 63.027344 44.664062 63.285156 45.078125 63.394531 C 45.96875 63.628906 46.761719 64.058594 47.535156 64.550781 C 47.886719 64.777344 48.304688 64.890625 48.667969 64.574219 C 49.503906 63.847656 50.363281 63.140625 50.96875 62.191406 C 51.625 61.164062 51.863281 59.964844 52.355469 58.875 C 53.335938 56.710938 53.941406 54.414062 54.820312 52.210938 C 55.128906 51.441406 55.40625 50.851562 56.234375 50.636719 C 56.730469 50.507812 56.726562 50.183594 56.640625 49.75 C 56.519531 49.160156 56.320312 48.582031 56.382812 47.960938 C 56.46875 47.132812 56.144531 46.898438 55.363281 47.195312 C 55.152344 47.273438 54.945312 47.371094 54.738281 47.46875 C 54.3125 47.664062 53.859375 47.835938 53.464844 47.460938 C 53.042969 47.0625 53.699219 46.835938 53.695312 46.324219 C 50.902344 45.863281 48.214844 47.101562 45.445312 46.847656 C 46.449219 47.484375 47.5625 47.785156 48.621094 48.214844 C 48.726562 48.257812 48.867188 48.207031 48.992188 48.199219 C 49.722656 48.15625 50.160156 48.78125 49.898438 49.554688 C 49.65625 49.441406 49.484375 49.148438 49.164062 49.253906 C 48.867188 49.355469 48.566406 49.292969 48.265625 49.257812 C 46.941406 49.101562 46.742188 49.296875 46.839844 50.609375 C 46.84375 50.695312 46.792969 50.789062 46.769531 50.875 C 46.335938 50.890625 46.28125 50.613281 46.265625 50.324219 C 46.253906 49.996094 46.25 49.65625 46.398438 49.359375 C 46.609375 48.9375 46.523438 48.734375 46.054688 48.59375 C 45.261719 48.355469 44.511719 47.96875 43.710938 47.777344 C 42.15625 47.402344 40.640625 47.007812 39.097656 48.085938 C 37.96875 48.875 36.355469 47.96875 36.140625 46.605469 C 36.078125 46.226562 35.90625 45.929688 35.609375 45.722656 C 34.988281 45.289062 34.371094 44.835938 33.703125 44.484375 C 33.152344 44.195312 32.421875 44.175781 32 44.578125 C 31.453125 45.097656 30.847656 45.148438 30.207031 45.226562 C 29.5 45.308594 29.054688 45.671875 29.09375 46.363281 C 29.128906 46.984375 28.925781 47.496094 28.667969 48.023438 C 28.265625 48.839844 28.398438 49.160156 29.242188 49.425781 C 30.132812 49.710938 30.199219 50.003906 29.84375 50.886719 C 29.472656 51.796875 28.761719 52.464844 28.261719 53.410156 M 58.628906 47.25 C 57.949219 46.675781 57.734375 46.675781 57.535156 47.429688 C 57.347656 48.136719 57.277344 48.875 57.667969 49.605469 C 57.957031 50.140625 58.296875 50.125 58.707031 49.890625 C 59.179688 49.621094 59.492188 49.273438 59.46875 48.632812 C 59.445312 48.011719 59.0625 47.695312 58.628906 47.25 M 27.925781 47.109375 C 28.289062 46.789062 28.273438 46.367188 28.082031 46.011719 C 27.949219 45.765625 27.625 45.855469 27.40625 46 C 26.738281 46.421875 26.625 47.445312 27.191406 48.109375 C 27.480469 47.847656 27.871094 47.679688 27.925781 47.109375 Z M 27.925781 47.109375 "/>
<path style=" stroke:none;fill-rule:nonzero;fill:rgb(0%,0%,0%);fill-opacity:1;" d="M 46.996094 38.796875 C 46.097656 38.386719 45.320312 37.722656 44.328125 37.535156 C 42.847656 37.253906 41.378906 36.714844 39.84375 37.328125 C 39.367188 37.519531 38.789062 37.261719 38.328125 37.664062 C 38.167969 37.804688 37.980469 37.886719 38.007812 38.113281 C 38.070312 38.707031 37.742188 39.121094 37.492188 39.617188 C 36.976562 40.640625 36.035156 40.921875 35.136719 41.328125 C 33.628906 42.011719 32.167969 41.527344 30.792969 40.972656 C 30.058594 40.675781 29.484375 39.9375 29.175781 39.167969 C 28.617188 37.761719 28.507812 36.359375 29.511719 35.042969 C 30.269531 34.050781 31.320312 33.511719 32.476562 33.375 C 34.308594 33.160156 35.851562 33.851562 37.25 35.105469 C 37.921875 35.710938 38.675781 36.367188 39.96875 35.894531 C 41.046875 35.503906 42.378906 35.671875 43.617188 35.945312 C 45.597656 36.382812 47.222656 37.496094 48.949219 38.484375 C 49.410156 38.117188 49.566406 37.527344 50.019531 37.152344 C 51.367188 36.050781 52.855469 35.851562 54.503906 36.265625 C 55.28125 36.460938 56.007812 36.617188 56.660156 37.199219 C 57.234375 37.714844 57.542969 38.335938 57.652344 38.980469 C 57.835938 40.066406 57.847656 41.199219 57.644531 42.292969 C 57.4375 43.402344 56.414062 43.679688 55.546875 44.015625 C 55.152344 44.167969 54.765625 44.335938 54.375 44.5 C 54.1875 44.578125 54.011719 44.703125 53.8125 44.667969 C 52.765625 44.480469 51.703125 44.402344 50.804688 43.679688 C 49.945312 42.988281 49.007812 42.40625 48.679688 41.25 C 48.613281 41.007812 48.476562 40.773438 48.527344 40.523438 C 48.691406 39.675781 48.195312 39.367188 47.414062 39.164062 C 47.222656 39.011719 47.109375 38.90625 46.996094 38.796875 Z M 46.996094 38.796875 "/>
<path style=" stroke:none;fill-rule:nonzero;fill:rgb(0%,0%,0%);fill-opacity:1;" d="M 61.269531 28.25 C 60.898438 27.058594 60.503906 25.929688 59.882812 24.910156 C 59.503906 24.292969 58.441406 24.066406 57.796875 24.445312 C 56.925781 24.957031 56.078125 25.519531 55.234375 26.078125 C 54.609375 26.488281 54.003906 26.914062 53.476562 27.460938 C 53.089844 27.871094 52.484375 27.707031 51.992188 27.804688 C 51.617188 27.882812 51.441406 27.082031 51.757812 26.695312 C 52.449219 25.859375 53.257812 25.117188 54.203125 24.613281 C 54.925781 24.226562 55.324219 23.445312 56.148438 23.222656 C 57.082031 22.96875 57.9375 22.496094 58.933594 22.394531 C 60.175781 22.269531 60.746094 23.117188 61.34375 23.898438 C 62.082031 24.867188 62.375 26.066406 62.824219 27.183594 C 62.902344 27.386719 62.90625 27.636719 62.882812 27.855469 C 62.824219 28.433594 62.976562 28.941406 63.285156 29.425781 C 63.6875 30.054688 63.5 30.753906 63.441406 31.417969 C 63.417969 31.664062 63.167969 31.894531 62.84375 31.90625 C 62.527344 31.921875 62.570312 31.617188 62.441406 31.472656 C 61.613281 30.570312 61.660156 29.367188 61.269531 28.25 Z M 61.269531 28.25 "/>
<path style=" stroke:none;fill-rule:nonzero;fill:rgb(0%,0%,0%);fill-opacity:1;" d="M 34.132812 25.019531 C 33.28125 26.117188 32.046875 26.742188 31.21875 27.789062 C 31.003906 28.0625 29.789062 28.074219 29.570312 27.820312 C 29.316406 27.523438 29.386719 27.226562 29.644531 26.945312 C 30.695312 25.796875 31.757812 24.652344 32.957031 23.667969 C 34.128906 22.699219 35.378906 21.816406 36.726562 21.09375 C 37.234375 20.820312 37.652344 20.835938 38.101562 21.242188 C 38.519531 21.628906 39.125 21.683594 39.617188 22.019531 C 40.394531 22.558594 41.1875 23.074219 41.855469 23.738281 C 42.960938 24.84375 43.023438 25.085938 42.289062 26.300781 C 42.226562 26.40625 42.203125 26.53125 42.128906 26.742188 C 41.269531 26.226562 40.972656 25.289062 40.363281 24.628906 C 40.148438 24.390625 39.996094 24.140625 39.671875 23.996094 C 39.117188 23.746094 38.511719 23.613281 38.027344 23.167969 C 37.503906 22.691406 36.945312 22.941406 36.433594 23.320312 C 35.835938 23.761719 35.179688 24.128906 34.703125 24.722656 C 34.5625 24.902344 34.367188 24.929688 34.132812 25.019531 Z M 34.132812 25.019531 "/>
<path style=" stroke:none;fill-rule:nonzero;fill:rgb(0%,0%,0%);fill-opacity:1;" d="M 46.933594 38.800781 C 47.109375 38.90625 47.222656 39.011719 47.371094 39.164062 C 47.828125 39.714844 47.78125 40.246094 47.5625 40.820312 C 47.269531 41.582031 46.664062 41.882812 45.933594 41.933594 C 44.878906 42.011719 43.832031 42.035156 43 41.152344 C 42.6875 40.820312 42.367188 41.121094 42.082031 41.359375 C 41.464844 41.882812 39.828125 41.804688 39.429688 41.128906 C 38.96875 40.347656 38.652344 39.449219 38.859375 38.503906 C 38.9375 38.148438 39.238281 37.894531 39.644531 37.917969 C 40.023438 37.9375 40.355469 38.148438 40.394531 38.527344 C 40.441406 38.996094 40.75 39.339844 40.816406 39.808594 C 41.339844 39.675781 41.5625 39.246094 41.882812 38.949219 C 42.664062 38.238281 43.582031 38.378906 44.03125 39.339844 C 44.164062 39.628906 44.320312 39.863281 44.546875 40.058594 C 45.085938 40.515625 45.644531 40.363281 45.773438 39.679688 C 45.890625 39.027344 46.265625 38.789062 46.933594 38.800781 Z M 46.933594 38.800781 "/>
<path style=" stroke:none;fill-rule:nonzero;fill:rgb(0%,0%,0%);fill-opacity:1;" d="M 62.96875 34.925781 C 62.703125 34.042969 62.957031 33.714844 63.792969 33.640625 C 64.9375 33.539062 66.039062 33.242188 67.132812 32.90625 C 67.679688 32.738281 68.226562 32.550781 68.785156 32.460938 C 69.34375 32.371094 69.789062 32.589844 69.867188 33.230469 C 69.953125 33.941406 69.667969 34.222656 69.007812 34.367188 C 67.832031 34.632812 66.644531 34.835938 65.472656 35.15625 C 64.695312 35.367188 63.792969 35.542969 62.96875 34.925781 Z M 62.96875 34.925781 "/>
<path style=" stroke:none;fill-rule:nonzero;fill:rgb(0%,0%,0%);fill-opacity:1;" d="M 70.464844 39.066406 C 69.332031 39.585938 68.292969 39.246094 67.214844 38.996094 C 66.472656 38.824219 65.664062 38.914062 64.882812 38.914062 C 64.3125 38.914062 63.792969 38.84375 63.71875 38.144531 C 63.664062 37.609375 64.109375 37.292969 64.886719 37.289062 C 65.742188 37.28125 66.605469 37.230469 67.457031 37.304688 C 68.34375 37.378906 69.214844 37.597656 70.117188 37.65625 C 70.828125 37.703125 70.96875 38.347656 70.464844 39.066406 Z M 70.464844 39.066406 "/>
<path style=" stroke:none;fill-rule:nonzero;fill:rgb(0%,0%,0%);fill-opacity:1;" d="M 21.382812 28.832031 C 21.929688 28.316406 22.492188 28.417969 23.046875 28.632812 C 24.125 29.054688 25.003906 29.890625 26.207031 30.078125 C 26.691406 30.15625 26.949219 30.902344 26.722656 31.402344 C 26.484375 31.925781 26.070312 32.007812 25.527344 31.824219 C 24.226562 31.378906 23.046875 30.679688 21.8125 30.09375 C 21.292969 29.84375 21.027344 29.464844 21.382812 28.832031 Z M 21.382812 28.832031 "/>
<path style=" stroke:none;fill-rule:nonzero;fill:rgb(0%,0%,0%);fill-opacity:1;" d="M 21.078125 33.992188 C 21.328125 33.664062 21.625 33.644531 21.9375 33.644531 C 23.097656 33.644531 24.257812 33.644531 25.417969 33.644531 C 25.976562 33.644531 26.441406 33.796875 26.453125 34.464844 C 26.464844 35.152344 25.996094 35.269531 25.433594 35.265625 C 24.246094 35.257812 23.058594 35.28125 21.875 35.257812 C 21.015625 35.242188 20.789062 34.898438 21.078125 33.992188 Z M 21.078125 33.992188 "/>
<path style=" stroke:none;fill-rule:nonzero;fill:rgb(0%,0%,0%);fill-opacity:1;" d="M 23.289062 67.035156 C 23.523438 67.066406 23.757812 66.96875 23.84375 67.238281 C 23.082031 67.628906 22.25 67.484375 21.929688 66.914062 C 21.601562 66.332031 21.882812 65.210938 22.460938 64.800781 C 22.957031 64.445312 24.121094 64.574219 24.480469 65.066406 C 24.757812 65.4375 24.691406 65.898438 24.550781 66.300781 C 24.433594 66.652344 24.160156 66.875 23.738281 66.84375 C 23.425781 66.820312 23.113281 66.839844 22.808594 67.011719 C 22.949219 67.019531 23.09375 67.027344 23.289062 67.035156 Z M 23.289062 67.035156 "/>
<path style=" stroke:none;fill-rule:nonzero;fill:rgb(0%,0%,0%);fill-opacity:1;" d="M 27.3125 66.265625 C 27.515625 65.917969 27.796875 65.800781 28.226562 65.800781 C 27.890625 65.578125 27.558594 65.75 27.253906 65.359375 C 27.742188 65.171875 28.203125 65.089844 28.582031 65.355469 C 29.132812 65.742188 28.9375 66.386719 28.808594 66.882812 C 28.691406 67.339844 28.164062 67.117188 27.816406 67.121094 C 27.28125 67.125 27.25 66.734375 27.3125 66.265625 Z M 27.3125 66.265625 "/>
<path style=" stroke:none;fill-rule:nonzero;fill:rgb(0%,0%,0%);fill-opacity:1;" d="M 26.582031 67.035156 C 26.230469 67.089844 25.929688 67.117188 25.628906 67.125 C 25.371094 67.128906 25.171875 67.019531 25.167969 66.734375 C 25.160156 66.066406 25.0625 65.390625 25.273438 64.59375 C 25.59375 65.046875 25.921875 65.253906 26.410156 65.257812 C 26.832031 65.261719 27.121094 65.957031 26.949219 66.398438 C 26.867188 66.605469 26.738281 66.800781 26.582031 67.035156 M 25.585938 66.238281 C 25.679688 66.476562 25.804688 66.703125 26.101562 66.679688 C 26.308594 66.664062 26.355469 66.46875 26.355469 66.289062 C 26.355469 66.070312 26.433594 65.785156 26.167969 65.699219 C 25.824219 65.589844 25.722656 65.90625 25.585938 66.238281 Z M 25.585938 66.238281 "/>
<path style=" stroke:none;fill-rule:nonzero;fill:rgb(0%,0%,0%);fill-opacity:1;" d="M 39.761719 66.894531 C 39.414062 67.25 39.027344 67.128906 38.664062 67.101562 C 38.414062 67.085938 38.265625 66.90625 38.226562 66.65625 C 38.152344 66.171875 38.5 65.957031 38.820312 65.71875 C 38.6875 65.546875 38.40625 65.707031 38.292969 65.453125 C 38.320312 65.40625 38.339844 65.308594 38.382812 65.296875 C 39.488281 64.996094 39.863281 65.410156 39.761719 66.894531 Z M 39.761719 66.894531 "/>
<path style=" stroke:none;fill-rule:nonzero;fill:rgb(0%,0%,0%);fill-opacity:1;" d="M 36.160156 65.667969 C 36.496094 65.160156 36.949219 65.140625 37.398438 65.269531 C 37.777344 65.378906 37.769531 65.746094 37.789062 66.054688 C 37.425781 66.433594 36.867188 66.007812 36.523438 66.414062 C 36.6875 67.007812 37.332031 66.515625 37.609375 66.941406 C 37.234375 67.246094 36.820312 67.21875 36.460938 67.007812 C 35.960938 66.714844 36.050781 66.203125 36.160156 65.667969 Z M 36.160156 65.667969 "/>
<path style=" stroke:none;fill-rule:nonzero;fill:rgb(0%,0%,0%);fill-opacity:1;" d="M 40.183594 65.445312 C 40.445312 65.0625 40.5625 64.53125 41.195312 64.675781 C 41.351562 65.386719 40.875 66.019531 40.960938 66.714844 C 40.984375 66.902344 40.847656 67.054688 40.632812 67.050781 C 40.402344 67.046875 40.367188 66.859375 40.34375 66.679688 C 40.296875 66.285156 40.410156 65.871094 40.183594 65.445312 Z M 40.183594 65.445312 "/>
<path style=" stroke:none;fill-rule:nonzero;fill:rgb(0%,0%,0%);fill-opacity:1;" d="M 29.691406 66.222656 C 29.246094 66 29.261719 65.621094 29.488281 65.394531 C 29.808594 65.078125 30.238281 65.164062 30.632812 65.363281 C 30.507812 65.75 30.15625 65.53125 29.976562 65.710938 C 30.050781 66.210938 31.238281 66.113281 30.6875 66.894531 C 30.359375 67.363281 29.804688 67.152344 29.273438 67 C 29.5 66.613281 29.867188 66.816406 30.136719 66.660156 C 30.125 66.417969 29.976562 66.292969 29.691406 66.222656 Z M 29.691406 66.222656 "/>
<path style=" stroke:none;fill-rule:nonzero;fill:rgb(0%,0%,0%);fill-opacity:1;" d="M 31.398438 65.730469 C 31.445312 65.5 31.457031 65.308594 31.789062 65.3125 C 31.972656 65.878906 31.972656 66.449219 31.761719 67.101562 C 31.074219 66.757812 31.398438 66.226562 31.398438 65.730469 Z M 31.398438 65.730469 "/>
<path style=" stroke:none;fill-rule:nonzero;fill:rgb(0%,0%,0%);fill-opacity:1;" d="M 38.195312 58.335938 C 37.566406 58.316406 36.996094 58.105469 36.4375 58.464844 C 36.183594 58.625 35.878906 58.457031 35.707031 58.21875 C 35.425781 57.835938 35.046875 57.746094 34.597656 57.679688 C 33.078125 57.460938 31.597656 56.957031 30.03125 57.039062 C 29.839844 57.046875 29.628906 56.992188 29.492188 56.757812 C 29.640625 56.511719 29.929688 56.480469 30.140625 56.523438 C 31.003906 56.695312 31.890625 56.328125 32.699219 56.496094 C 34.835938 56.929688 37.0625 56.527344 39.171875 57.277344 C 39.878906 57.53125 40.695312 57.445312 41.460938 57.628906 C 43.109375 58.027344 44.789062 58.296875 46.359375 58.964844 C 47.105469 59.28125 47.960938 59.054688 48.695312 59.472656 C 48.925781 59.605469 49.28125 59.59375 49.246094 59.96875 C 49.207031 60.375 48.851562 60.351562 48.554688 60.410156 C 48.023438 60.507812 47.558594 60.242188 47.085938 60.117188 C 44.984375 59.550781 42.890625 58.96875 40.726562 58.699219 C 39.902344 58.597656 39.058594 58.621094 38.195312 58.335938 Z M 38.195312 58.335938 "/>
<path style=" stroke:none;fill-rule:nonzero;fill:rgb(0%,0%,0%);fill-opacity:1;" d="M 48.179688 53.746094 C 48.496094 53.003906 48.34375 52.109375 49.179688 51.632812 C 49.414062 51.867188 49.378906 52.160156 49.246094 52.433594 C 49.03125 52.886719 48.738281 53.304688 48.714844 53.835938 C 48.707031 53.996094 48.597656 54.125 48.414062 54.113281 C 48.226562 54.105469 48.164062 53.972656 48.179688 53.746094 Z M 48.179688 53.746094 "/>
<path style=" stroke:none;fill-rule:nonzero;fill:rgb(0%,0%,0%);fill-opacity:1;" d="M 48.171875 56.238281 C 48.175781 56.464844 48.210938 56.65625 48.148438 56.804688 C 48.011719 57.128906 47.949219 57.710938 47.492188 57.546875 C 46.988281 57.363281 47.457031 56.960938 47.558594 56.679688 C 47.695312 56.324219 47.585938 55.875 47.9375 55.582031 C 48.199219 55.726562 48.082031 55.992188 48.171875 56.238281 Z M 48.171875 56.238281 "/>
</g>
</svg>
