<svg version="1.1" id="Layer_1" xmlns="http://www.w3.org/2000/svg" xmlns:xlink="http://www.w3.org/1999/xlink" x="0px" y="0px"
	 width="100%" viewBox="0 0 736 736" enable-background="new 0 0 736 736" xml:space="preserve">
<path fill="#000000" opacity="1.000000" stroke="none" 
	d="
M163.975555,318.963043 
	C170.216568,324.907715 172.091263,332.100494 172.115128,340.076508 
	C172.136337,347.169678 175.221344,349.285400 182.023804,347.135010 
	C182.182663,347.084747 182.356522,347.056763 182.495514,346.972443 
	C191.214203,341.683899 200.841583,338.599915 210.331268,335.083679 
	C214.931976,333.378967 217.999496,329.371002 218.900909,324.133240 
	C219.779160,319.030060 221.375092,314.134369 223.241180,309.290131 
	C231.677887,287.388947 221.046402,258.985474 200.404373,247.977814 
	C193.329163,244.204849 182.161072,246.243118 175.213806,252.243439 
	C172.905060,254.237503 171.722992,257.597076 168.096298,258.397736 
	C166.374435,256.251953 167.544006,254.084198 168.111984,252.226685 
	C176.922119,223.414093 188.470596,195.832428 205.505524,170.803741 
	C210.285034,163.781433 215.535675,157.093475 221.365738,150.885864 
	C227.303040,144.564056 232.720947,143.442017 240.697159,147.113022 
	C249.500565,151.164719 256.411316,157.746002 262.960663,164.620728 
	C280.925659,183.478195 296.419769,204.364182 311.879822,225.251022 
	C314.486420,228.772568 316.865875,230.407623 321.411591,229.143387 
	C332.761169,225.986938 343.221008,225.791016 352.319519,235.821274 
	C357.886871,241.958740 365.863739,245.098419 374.487091,246.330978 
	C380.527924,247.194382 384.878387,245.406372 388.551849,240.948547 
	C391.825867,236.975403 395.080536,232.985611 398.403839,229.053955 
	C400.420013,226.668686 403.227631,226.093033 406.120819,226.403625 
	C413.732697,227.220779 421.399628,227.832565 428.898193,229.283005 
	C433.382233,230.150360 435.813507,228.954147 438.465393,225.384399 
	C453.660889,204.929337 468.776093,184.387558 486.383240,165.874283 
	C492.934601,158.985809 499.737915,152.385895 508.316345,147.914001 
	C517.175415,143.295807 522.519653,144.032501 529.266052,151.258743 
	C546.321411,169.527115 558.363281,190.941788 568.206238,213.701630 
	C586.794861,256.683899 596.711365,301.927032 603.133118,348.080841 
	C606.301514,370.853088 608.023376,393.749969 608.963745,416.701111 
	C609.359436,426.357086 608.237610,435.981873 606.737793,445.536591 
	C606.456970,447.325653 606.227295,449.122711 605.937683,451.172943 
	C610.057068,452.140869 613.731506,450.765564 617.411133,450.295776 
	C624.696228,449.365662 630.233826,452.963623 631.441040,459.777954 
	C632.545593,466.013275 628.259460,471.734894 621.360962,472.932800 
	C616.120361,473.842834 610.847229,474.608704 605.562683,475.212677 
	C596.942139,476.197906 596.190674,476.779388 593.550598,486.303925 
	C600.752441,488.324158 608.234497,488.465302 615.537842,489.586426 
	C623.053406,490.740143 627.605042,495.669159 626.794739,502.169159 
	C625.904297,509.312042 620.138916,513.377441 612.352051,512.374084 
	C602.444580,511.097382 592.514954,509.972626 582.635254,508.509369 
	C577.754211,507.786438 576.451050,511.199554 574.394714,514.405518 
	C578.160156,517.444214 582.766113,518.087280 586.712891,520.119934 
	C593.663818,523.699646 596.341614,529.343506 593.679443,535.530334 
	C591.061035,541.615479 584.687378,543.996521 577.703796,541.324768 
	C571.949585,539.123413 566.210327,536.861633 560.581665,534.362427 
	C557.441284,532.968018 555.046753,533.305969 552.389893,535.539612 
	C525.119751,558.465942 493.661835,573.111267 459.450928,582.258118 
	C428.341125,590.575623 396.627655,594.227600 364.515900,592.977844 
	C314.030182,591.013000 265.978546,579.773804 222.289749,553.201721 
	C213.866165,548.078369 205.926239,542.275146 198.491379,535.843872 
	C195.484268,533.242615 192.818253,533.020996 189.422546,534.494019 
	C184.076340,536.813232 178.691406,539.061951 173.232483,541.098206 
	C165.625839,543.935608 159.039139,541.407104 156.545944,534.929138 
	C154.152649,528.710754 157.299500,522.972046 164.777420,519.556824 
	C168.343109,517.928345 172.459869,517.384827 175.567947,514.389648 
	C173.961121,510.009033 171.602020,507.983246 166.519684,508.796478 
	C156.663147,510.373688 146.704391,511.345490 136.768616,512.382385 
	C129.998718,513.088867 124.721519,509.003632 123.824135,502.711273 
	C122.892166,496.176331 126.995659,490.899261 133.935760,489.694489 
	C141.283051,488.419037 148.828781,488.369781 156.021805,486.333344 
	C155.903961,479.181427 153.147049,476.118164 146.493088,475.333832 
	C140.879410,474.672150 135.267151,473.973114 129.678802,473.128113 
	C122.510391,472.044281 117.992798,466.390167 118.939316,459.911072 
	C119.926788,453.151733 125.921310,449.207153 133.367737,450.282196 
	C145.303070,452.005310 144.205765,450.674011 143.091217,441.802429 
	C139.576691,413.827454 142.705597,385.998993 146.178329,358.204285 
	C148.178146,342.198425 150.250961,326.223511 153.784943,310.470428 
	C154.254639,308.376678 154.813385,306.341675 156.682465,304.132599 
	C160.165314,308.837341 159.906693,314.830383 163.975555,318.963043 
z"/>
</svg>